<svg version="1.1" xmlns="http://www.w3.org/2000/svg" viewBox="0 0 235.23988169187737 188.78109181794844"
    width="235.23988169187737" height="188.78109181794844">
    <!-- svg-source:excalidraw -->

    <defs>
        <style class="style-fonts">
            @font-face {
                font-family: "Virgil";
                src: url("https://excalidraw.com/Virgil.woff2");
            }

            @font-face {
                font-family: "Cascadia";
                src: url("https://excalidraw.com/Cascadia.woff2");
            }
        </style>
    </defs>
    <rect x="0" y="0" width="235.23988169187737" height="188.78109181794844" fill="#ffffff"></rect>
    <g stroke-linecap="round" transform="translate(10 67.35166129290178) rotate(0 25.5 25.5)">
        <path
            d="M12.75 0 M12.75 0 C21.17 -1.79, 26.67 0.27, 38.25 0 M12.75 0 C19.71 0.42, 26.57 -0.53, 38.25 0 M38.25 0 C47.34 -0.08, 49.37 4.4, 51 12.75 M38.25 0 C45.73 -0.14, 52.1 4.84, 51 12.75 M51 12.75 C49.18 20.71, 48.78 27.39, 51 38.25 M51 12.75 C51.63 20.43, 51 26.62, 51 38.25 M51 38.25 C49.27 47.44, 45.67 51.94, 38.25 51 M51 38.25 C52.61 46.03, 47.14 52.18, 38.25 51 M38.25 51 C27.82 50.56, 18.74 49.31, 12.75 51 M38.25 51 C32.53 51.67, 25.79 51.48, 12.75 51 M12.75 51 C3.34 52.35, 0.17 46.13, 0 38.25 M12.75 51 C5.64 49.91, 1.98 46.28, 0 38.25 M0 38.25 C-0.59 29.9, -0.44 24.54, 0 12.75 M0 38.25 C-1.04 32.4, -0.82 27.43, 0 12.75 M0 12.75 C-1.44 3.82, 3.56 0.78, 12.75 0 M0 12.75 C0.22 2.05, 4.31 1.7, 12.75 0"
            stroke="#000000" stroke-width="1" fill="none"></path>
    </g>
    <g transform="translate(28.844261169433594 79.92895597889208) rotate(0 6.655738830566406 12.922705314009647)"><text
            x="6.655738830566406" y="0" font-family="Virgil, Segoe UI Emoji" font-size="20.67632850241546px"
            fill="#000000" text-anchor="middle" style="white-space: pre;" direction="ltr"
            dominant-baseline="text-before-edge">N</text></g>
    <g stroke-linecap="round" transform="translate(64.56763285024181 67.35166129290178) rotate(0 80 25.5)">
        <path
            d="M12.75 0 M12.75 0 C50.18 1.47, 90.3 2.29, 147.25 0 M12.75 0 C65.03 -1.18, 118.33 -0.92, 147.25 0 M147.25 0 C154.12 0.15, 159.11 4.13, 160 12.75 M147.25 0 C156.85 0.59, 159.64 2.07, 160 12.75 M160 12.75 C157.82 21.37, 159.07 30.33, 160 38.25 M160 12.75 C160.06 20.17, 159.28 27.08, 160 38.25 M160 38.25 C158.92 47.69, 157.15 50.38, 147.25 51 M160 38.25 C160.39 47.93, 157.22 52.44, 147.25 51 M147.25 51 C114.95 49.3, 83.18 50.42, 12.75 51 M147.25 51 C99.67 52.09, 52.86 52.41, 12.75 51 M12.75 51 C4.42 50.38, 1.21 45.8, 0 38.25 M12.75 51 C6.23 50.53, -0.6 47.07, 0 38.25 M0 38.25 C-0.33 32.87, -1.47 28.43, 0 12.75 M0 38.25 C-0.42 33.65, -0.5 27.73, 0 12.75 M0 12.75 C-0.69 5.03, 4.44 -1.91, 12.75 0 M0 12.75 C0.06 5.95, 5.75 0.76, 12.75 0"
            stroke="#000000" stroke-width="1" fill="none"></path>
    </g>
    <g transform="translate(139.72051828725353 79.92895597889208) rotate(0 4.847114562988281 12.922705314009647)"><text
            x="4.847114562988281" y="0" font-family="Virgil, Segoe UI Emoji" font-size="20.67632850241546px"
            fill="#000000" text-anchor="middle" style="white-space: pre;" direction="ltr"
            dominant-baseline="text-before-edge">y</text></g>
    <g transform="translate(13.849950435300343 10) rotate(0 82.47396850585938 17.5)"><text x="0" y="0"
            font-family="Virgil, Segoe UI Emoji" font-size="28px" fill="#000000" text-anchor="start"
            style="white-space: pre;" direction="ltr" dominant-baseline="text-before-edge">Value Stack</text></g>
    <g stroke-linecap="round" transform="translate(10.672248841635565 127.78109181794844) rotate(0 25.5 25.5)">
        <path
            d="M12.75 0 M12.75 0 C22.55 -0.39, 29.99 -0.86, 38.25 0 M12.75 0 C18.82 0.08, 26.08 -0.05, 38.25 0 M38.25 0 C47.7 0.51, 50.69 2.36, 51 12.75 M38.25 0 C47.5 -1.81, 51.82 1.97, 51 12.75 M51 12.75 C50.39 21.68, 52.82 28.25, 51 38.25 M51 12.75 C50.24 21.96, 51.48 29.92, 51 38.25 M51 38.25 C51.34 47.77, 48.03 52.25, 38.25 51 M51 38.25 C49.46 45.43, 46.44 49.91, 38.25 51 M38.25 51 C33.52 51.36, 27.92 49.73, 12.75 51 M38.25 51 C29.78 50.86, 21.74 50.7, 12.75 51 M12.75 51 C5.98 50.6, -0.52 47.03, 0 38.25 M12.75 51 C2.43 50.36, -1.57 46.29, 0 38.25 M0 38.25 C-1.76 28.55, -0.13 21.02, 0 12.75 M0 38.25 C-0.16 29.57, 0.28 19.16, 0 12.75 M0 12.75 C0.05 5.73, 5.56 0.66, 12.75 0 M0 12.75 C-0.15 2.09, 5.49 0.21, 12.75 0"
            stroke="#000000" stroke-width="1" fill="none"></path>
    </g>
    <g transform="translate(29.51651001106916 140.35838650393885) rotate(0 6.655738830566406 12.922705314009647)"><text
            x="6.655738830566406" y="0" font-family="Virgil, Segoe UI Emoji" font-size="20.67632850241546px"
            fill="#000000" text-anchor="middle" style="white-space: pre;" direction="ltr"
            dominant-baseline="text-before-edge">N</text></g>
    <g stroke-linecap="round" transform="translate(65.23988169187737 127.78109181794844) rotate(0 80 25.5)">
        <path
            d="M12.75 0 M12.75 0 C61.63 -0.55, 107.29 0.76, 147.25 0 M12.75 0 C52.14 -0.16, 92.9 0.16, 147.25 0 M147.25 0 C155.44 -1.89, 160.65 2.68, 160 12.75 M147.25 0 C156.57 -2.28, 160.16 3.41, 160 12.75 M160 12.75 C161.85 21.03, 160.79 27.88, 160 38.25 M160 12.75 C160.56 20.96, 160.03 30.31, 160 38.25 M160 38.25 C161.28 48, 154.41 49.85, 147.25 51 M160 38.25 C159.69 45.66, 154 49.44, 147.25 51 M147.25 51 C110.67 50.05, 72.61 50.37, 12.75 51 M147.25 51 C98.4 50.11, 49.21 50.38, 12.75 51 M12.75 51 C3.73 51.28, -1.58 46.19, 0 38.25 M12.75 51 C2.68 50.54, 0.3 44.98, 0 38.25 M0 38.25 C-0.07 27.48, 1.36 17.82, 0 12.75 M0 38.25 C0.18 30.2, 0.11 24.79, 0 12.75 M0 12.75 C1.31 4.91, 4.12 -1.88, 12.75 0 M0 12.75 C1.24 4.46, 6.17 -2.22, 12.75 0"
            stroke="#000000" stroke-width="1" fill="none"></path>
    </g>
    <g transform="translate(139.43161600584222 140.35838650393873) rotate(0 5.808265686035156 12.922705314009647)"><text
            x="5.808265686035156" y="0" font-family="Virgil, Segoe UI Emoji" font-size="20.67632850241546px"
            fill="#000000" text-anchor="middle" style="white-space: pre;" direction="ltr"
            dominant-baseline="text-before-edge">x</text></g>
</svg>