<svg version="1.1" xmlns="http://www.w3.org/2000/svg"
    viewBox="0 0 269.52164879439647 465.0755084394591" width="269.52164879439647"
    height="465.0755084394591">
    <!-- svg-source:excalidraw -->

    <defs>
        <style class="style-fonts">
            @font-face {
            font-family: "Virgil";
            src: url("https://excalidraw.com/Virgil.woff2");
            }
            @font-face {
            font-family: "Cascadia";
            src: url("https://excalidraw.com/Cascadia.woff2");
            }
        </style>
    </defs>
    <rect x="0" y="0" width="269.52164879439647" height="465.0755084394591" fill="#ffffff"></rect>
    <g stroke-linecap="round"
        transform="translate(65.15568974312202 64.22356100994085) rotate(0 87 20)">
        <path
            d="M10 0 M10 0 C58.96 -1.04, 105.51 -0.6, 164 0 M10 0 C66.79 -1.38, 125.21 -1.72, 164 0 M164 0 C172.66 0.06, 173.36 2.77, 174 10 M164 0 C170.93 0.94, 171.87 1.64, 174 10 M174 10 C175.01 16.43, 173.12 22.03, 174 30 M174 10 C173.11 15.3, 174.01 21.55, 174 30 M174 30 C174.45 36.53, 171.72 41.66, 164 40 M174 30 C171.71 35.8, 172.53 37.91, 164 40 M164 40 C113.56 42.15, 65.89 40.42, 10 40 M164 40 C117.08 39.16, 70.22 38.84, 10 40 M10 40 C4.45 40.17, -0.42 35.32, 0 30 M10 40 C2.75 38.22, -0.1 37.09, 0 30 M0 30 C-1.29 26.36, 1.41 20.21, 0 10 M0 30 C0.01 24.52, -0.75 20.97, 0 10 M0 10 C-1.46 3.4, 3.56 -1.25, 10 0 M0 10 C0.82 3.35, 3.11 -0.09, 10 0"
            stroke="#000000" stroke-width="1" fill="none"></path>
    </g>
    <g transform="translate(130.37571385200874 71.72356100994085) rotate(0 21.77997589111328 12.5)">
        <text x="21.77997589111328" y="0" font-family="Virgil, Segoe UI Emoji" font-size="20px"
            fill="#000000" text-anchor="middle" style="white-space: pre;" direction="ltr"
            dominant-baseline="text-before-edge">Hello</text>
    </g>
    <g stroke-linecap="round"
        transform="translate(-46.33019779714539 112.98119901789471) rotate(269.50102884999615 77 20)">
        <path
            d="M10 0 M10 0 C46.78 0.03, 87.9 1.94, 144 0 M10 0 C57.39 -0.13, 104.95 0.84, 144 0 M144 0 C150.03 -0.56, 154.23 4.15, 154 10 M144 0 C148.53 -1.7, 155.06 4.06, 154 10 M154 10 C153.15 12.79, 154.37 18.65, 154 30 M154 10 C153.9 14.67, 154.06 21.26, 154 30 M154 30 C155.06 38.33, 148.68 39.25, 144 40 M154 30 C155.86 34.58, 151.17 42.05, 144 40 M144 40 C96.32 40.23, 46.64 42.43, 10 40 M144 40 C113.15 40.33, 83.56 40.46, 10 40 M10 40 C2.91 38.66, -0.51 35.12, 0 30 M10 40 C3.23 40.43, -2.14 35.49, 0 30 M0 30 C1.45 20.75, -0.94 12.54, 0 10 M0 30 C-0.91 23.81, -0.69 16.01, 0 10 M0 10 C0.23 2.09, 4.05 0.02, 10 0 M0 10 C-0.22 3.25, 2.83 0.35, 10 0"
            stroke="#000000" stroke-width="1" fill="none"></path>
    </g>
    <g
        transform="translate(-19.480153546657107 120.48119901789471) rotate(269.50102884999615 50.14995574951172 12.5)">
        <text x="50.14995574951172" y="0" font-family="Virgil, Segoe UI Emoji" font-size="20px"
            fill="#000000" text-anchor="middle" style="white-space: pre;" direction="ltr"
            dominant-baseline="text-before-edge">Constants</text>
    </g>
    <g stroke-linecap="round"
        transform="translate(-80.4907587916212 320.30593140584006) rotate(269.23701463560457 113.5 21)">
        <path
            d="M10.5 0 M10.5 0 C60.51 1.73, 108.83 -0.32, 216.5 0 M10.5 0 C60.75 1.75, 108.94 1.47, 216.5 0 M216.5 0 C223.73 0.82, 225.15 2.03, 227 10.5 M216.5 0 C224.56 0.72, 225.4 4.59, 227 10.5 M227 10.5 C227.17 15.73, 226.57 20.4, 227 31.5 M227 10.5 C227.24 14.69, 227.54 19.85, 227 31.5 M227 31.5 C225.01 37.75, 225.12 40.18, 216.5 42 M227 31.5 C227.5 40.55, 224.96 41, 216.5 42 M216.5 42 C142.69 42.96, 67.48 41.12, 10.5 42 M216.5 42 C149.45 41.99, 81.21 41.32, 10.5 42 M10.5 42 C2.99 40.45, -0.09 38.87, 0 31.5 M10.5 42 C1.36 40.83, 2 36.89, 0 31.5 M0 31.5 C-1.21 22.68, 0.87 17.46, 0 10.5 M0 31.5 C-0.53 26.4, 0.31 20.61, 0 10.5 M0 10.5 C0.71 3.52, 3.31 -0.08, 10.5 0 M0 10.5 C-0.5 3.85, 3.83 0.82, 10.5 0"
            stroke="#000000" stroke-width="1" fill="none"></path>
    </g>
    <g
        transform="translate(-19.100705996211445 328.80593140584006) rotate(269.23701463560457 52.109947204589844 12.5)">
        <text x="52.109947204589844" y="0" font-family="Virgil, Segoe UI Emoji" font-size="20px"
            fill="#000000" text-anchor="middle" style="white-space: pre;" direction="ltr"
            dominant-baseline="text-before-edge">Operations</text>
    </g>
    <g stroke-linecap="round"
        transform="translate(67.09338216393564 166.45259403515956) rotate(0 17.5 20)">
        <path
            d="M8.75 0 M8.75 0 C14.16 -1.15, 16.75 0.63, 26.25 0 M8.75 0 C12.08 -0.25, 16.06 0.35, 26.25 0 M26.25 0 C30.23 -1.47, 35.92 3.55, 35 8.75 M26.25 0 C30.48 1.09, 34.44 1.83, 35 8.75 M35 8.75 C34.7 11.78, 33.09 18.31, 35 31.25 M35 8.75 C35.58 14.1, 34.06 17.4, 35 31.25 M35 31.25 C36.62 35.27, 32.52 41.79, 26.25 40 M35 31.25 C36.46 36.08, 33.43 41.19, 26.25 40 M26.25 40 C20.22 39.78, 17.21 39.54, 8.75 40 M26.25 40 C20.9 39.43, 15.69 39.34, 8.75 40 M8.75 40 C2.83 40.37, -1.86 36.06, 0 31.25 M8.75 40 C4.91 38.39, 0.58 38.59, 0 31.25 M0 31.25 C1.13 25.81, -0.99 19.25, 0 8.75 M0 31.25 C0.28 22.04, 0.52 14.08, 0 8.75 M0 8.75 C-0.19 2.84, 2.48 0.3, 8.75 0 M0 8.75 C0.33 3.74, 3.53 -1.75, 8.75 0"
            stroke="#000000" stroke-width="1" fill="none"></path>
    </g>
    <g transform="translate(78.73400716393564 174.45259403515956) rotate(0 5.859375 12)">
        <text x="5.859375" y="0" font-family="Cascadia, Segoe UI Emoji" font-size="20px"
            fill="#000000" text-anchor="middle" style="white-space: pre;" direction="ltr"
            dominant-baseline="text-before-edge">O</text>
    </g>
    <g stroke-linecap="round"
        transform="translate(67.46541881863197 116.41316599556268) rotate(0 17.5 20)">
        <path
            d="M8.75 0 M8.75 0 C13.9 0.83, 19.52 1.85, 26.25 0 M8.75 0 C14.15 0.41, 18.54 -0.6, 26.25 0 M26.25 0 C33 0.63, 33.61 3.87, 35 8.75 M26.25 0 C31.52 -1.08, 32.91 3.23, 35 8.75 M35 8.75 C33.02 15.01, 32.97 21.44, 35 31.25 M35 8.75 C34.12 14.97, 35.93 21.02, 35 31.25 M35 31.25 C35.44 38.87, 33.35 39.13, 26.25 40 M35 31.25 C36.35 38.27, 31.45 40.08, 26.25 40 M26.25 40 C20.05 39.36, 12.78 40.94, 8.75 40 M26.25 40 C20.63 39.21, 15.42 40.04, 8.75 40 M8.75 40 C1.06 38.98, 1.74 35.69, 0 31.25 M8.75 40 C3.49 41.51, -1.74 35.85, 0 31.25 M0 31.25 C-1.22 24.84, 1.52 20.77, 0 8.75 M0 31.25 C0.33 24.43, -0.12 17.56, 0 8.75 M0 8.75 C-0.43 3.22, 3.21 0.71, 8.75 0 M0 8.75 C0.62 1.17, 4.19 0.78, 8.75 0"
            stroke="#000000" stroke-width="1" fill="none"></path>
    </g>
    <g transform="translate(79.10604381863197 124.41316599556268) rotate(0 5.859375 12)">
        <text x="5.859375" y="0" font-family="Cascadia, Segoe UI Emoji" font-size="20px"
            fill="#000000" text-anchor="middle" style="white-space: pre;" direction="ltr"
            dominant-baseline="text-before-edge">1</text>
    </g>
    <g stroke-linecap="round"
        transform="translate(71.86217496961736 227.41106863770557) rotate(0 57.5 17.5)">
        <path
            d="M8.75 0 M8.75 0 C30.23 1.6, 55.54 -1.04, 106.25 0 M8.75 0 C34.32 -1.14, 62.21 -0.08, 106.25 0 M106.25 0 C110.69 0.95, 114.51 1.97, 115 8.75 M106.25 0 C110 0.31, 114.35 2.53, 115 8.75 M115 8.75 C113.09 12.93, 114.71 17.24, 115 26.25 M115 8.75 C115.53 14.66, 115.02 22.94, 115 26.25 M115 26.25 C116.27 31.21, 113.25 36.03, 106.25 35 M115 26.25 C114.36 32.16, 113.98 33.33, 106.25 35 M106.25 35 C78.94 35.78, 51.98 34.24, 8.75 35 M106.25 35 C83.5 34.43, 59.9 33.74, 8.75 35 M8.75 35 C4.65 33.6, 0.5 33.4, 0 26.25 M8.75 35 C1.18 33.76, -2.29 33.24, 0 26.25 M0 26.25 C1.53 20.06, 0.16 16.63, 0 8.75 M0 26.25 C-0.15 22.06, -0.25 18.06, 0 8.75 M0 8.75 C0.29 3.63, 3.45 -1.52, 8.75 0 M0 8.75 C1.27 3.7, 4.14 0.14, 8.75 0"
            stroke="#000000" stroke-width="1" fill="none"></path>
    </g>
    <g transform="translate(88.44220731825017 232.41106863770557) rotate(0 40.91996765136719 12.5)">
        <text x="40.91996765136719" y="0" font-family="Virgil, Segoe UI Emoji" font-size="20px"
            fill="#000000" text-anchor="middle" style="white-space: pre;" direction="ltr"
            dominant-baseline="text-before-edge">CONS_N</text>
    </g>
    <g stroke-linecap="round"
        transform="translate(71.86217496961736 311.24757680763497) rotate(0 58 17.5)">
        <path
            d="M8.75 0 M8.75 0 C42.43 -1.62, 75.42 -0.76, 107.25 0 M8.75 0 C42.79 1.04, 75.21 1.2, 107.25 0 M107.25 0 C112.59 -0.94, 114.19 3.19, 116 8.75 M107.25 0 C112.44 -0.39, 114.07 0.68, 116 8.75 M116 8.75 C115.7 15.05, 117.28 17.76, 116 26.25 M116 8.75 C116.33 14.12, 116.7 17.55, 116 26.25 M116 26.25 C117.17 33.12, 112.53 35.07, 107.25 35 M116 26.25 C117.9 30.42, 112.6 35.64, 107.25 35 M107.25 35 C81.29 35.13, 53.65 35.04, 8.75 35 M107.25 35 C84.39 34.67, 64.26 34.48, 8.75 35 M8.75 35 C3.42 36.31, -1.51 31.01, 0 26.25 M8.75 35 C0.63 36.16, -0.45 30.81, 0 26.25 M0 26.25 C-0.08 22.86, -1.23 19.69, 0 8.75 M0 26.25 C-0.17 21.12, 0.14 16.03, 0 8.75 M0 8.75 C0.54 1.4, 4.03 0.68, 8.75 0 M0 8.75 C1.22 3.06, 4.87 -0.71, 8.75 0"
            stroke="#000000" stroke-width="1" fill="none"></path>
    </g>
    <g
        transform="translate(109.07218168348454 316.24757680763497) rotate(0 20.789993286132812 12.5)">
        <text x="20.789993286132812" y="0" font-family="Virgil, Segoe UI Emoji" font-size="20px"
            fill="#000000" text-anchor="middle" style="white-space: pre;" direction="ltr"
            dominant-baseline="text-before-edge">MUL</text>
    </g>
    <g stroke-linecap="round"
        transform="translate(71.86217496961736 269.32932272267027) rotate(0 58 17.5)">
        <path
            d="M8.75 0 M8.75 0 C47.58 0.54, 88.35 -1.54, 107.25 0 M8.75 0 C30.34 0.17, 53.08 -0.78, 107.25 0 M107.25 0 C111.27 0.27, 115.44 2.58, 116 8.75 M107.25 0 C111.15 -2.24, 116.16 0.63, 116 8.75 M116 8.75 C117.44 12.65, 115.33 21.46, 116 26.25 M116 8.75 C116.59 12.03, 116.55 16.52, 116 26.25 M116 26.25 C115.45 32.15, 114.73 33.55, 107.25 35 M116 26.25 C115.52 32.73, 112.28 34.89, 107.25 35 M107.25 35 C70.85 34.29, 35.58 34.7, 8.75 35 M107.25 35 C76.75 33.8, 44.76 35.15, 8.75 35 M8.75 35 C1.41 33.92, -1.99 33.09, 0 26.25 M8.75 35 C2.47 33.72, -2.18 33.96, 0 26.25 M0 26.25 C-1.1 22.9, 0.01 18.13, 0 8.75 M0 26.25 C0.16 21.38, 0.27 15.22, 0 8.75 M0 8.75 C1.11 3.6, 3.98 0.12, 8.75 0 M0 8.75 C1.96 2.21, 1.29 -1.39, 8.75 0"
            stroke="#000000" stroke-width="1" fill="none"></path>
    </g>
    <g transform="translate(88.94220731825017 274.32932272267027) rotate(0 40.91996765136719 12.5)">
        <text x="40.91996765136719" y="0" font-family="Virgil, Segoe UI Emoji" font-size="20px"
            fill="#000000" text-anchor="middle" style="white-space: pre;" direction="ltr"
            dominant-baseline="text-before-edge">CONS_N</text>
    </g>
    <g stroke-linecap="round"
        transform="translate(71.86217496961736 353.1658308925997) rotate(0 57.5 17.5)">
        <path
            d="M8.75 0 M8.75 0 C35.72 -1.97, 59.57 0.81, 106.25 0 M8.75 0 C40.82 -0.93, 72.48 -0.33, 106.25 0 M106.25 0 C111.52 -0.34, 113.32 0.97, 115 8.75 M106.25 0 C112.25 -2.29, 115.52 2.75, 115 8.75 M115 8.75 C114.49 16.34, 113.56 21.48, 115 26.25 M115 8.75 C115.62 16.01, 114.87 22.4, 115 26.25 M115 26.25 C116.65 30.64, 111.67 35.56, 106.25 35 M115 26.25 C114.2 31.98, 113.37 35.19, 106.25 35 M106.25 35 C77.5 34.66, 52.21 32.89, 8.75 35 M106.25 35 C82.22 34.98, 56.94 33.78, 8.75 35 M8.75 35 C0.93 36.01, -0.39 30.97, 0 26.25 M8.75 35 C0.74 36.88, -1.68 32.16, 0 26.25 M0 26.25 C0.12 20.63, 0.04 14.97, 0 8.75 M0 26.25 C0.21 20.07, 0.46 15.52, 0 8.75 M0 8.75 C1.06 3.04, 4.62 -0.61, 8.75 0 M0 8.75 C-1.63 1.52, 4.65 0.46, 8.75 0"
            stroke="#000000" stroke-width="1" fill="none"></path>
    </g>
    <g transform="translate(88.44220731825017 358.1658308925997) rotate(0 40.91996765136719 12.5)">
        <text x="40.91996765136719" y="0" font-family="Virgil, Segoe UI Emoji" font-size="20px"
            fill="#000000" text-anchor="middle" style="white-space: pre;" direction="ltr"
            dominant-baseline="text-before-edge">CONS_N</text>
    </g>
    <g stroke-linecap="round"
        transform="translate(71.86217496961736 395.0840849775644) rotate(0 58 17.5)">
        <path
            d="M8.75 0 M8.75 0 C37.95 1.83, 70.73 -0.48, 107.25 0 M8.75 0 C42.07 0.6, 76.93 0.3, 107.25 0 M107.25 0 C111.41 -1.95, 116.14 0.93, 116 8.75 M107.25 0 C113.6 -0.16, 117.21 4.83, 116 8.75 M116 8.75 C114.34 12.64, 117.5 16.88, 116 26.25 M116 8.75 C115.86 13.27, 116.82 17.09, 116 26.25 M116 26.25 C115.58 32.64, 112.39 34.91, 107.25 35 M116 26.25 C117.29 32.27, 112.6 33.46, 107.25 35 M107.25 35 C80.57 33.1, 52.13 36.69, 8.75 35 M107.25 35 C83.82 35.11, 60.9 36.15, 8.75 35 M8.75 35 C2.53 33.89, -1.89 33.72, 0 26.25 M8.75 35 C1.24 35.08, 0.26 30.65, 0 26.25 M0 26.25 C-0.07 20, 0.26 14.76, 0 8.75 M0 26.25 C0.44 20.67, 0.42 14.56, 0 8.75 M0 8.75 C1.7 2.3, 1.5 -1.21, 8.75 0 M0 8.75 C1.73 3.37, 1.23 0.04, 8.75 0"
            stroke="#000000" stroke-width="1" fill="none"></path>
    </g>
    <g transform="translate(107.70218656629704 400.0840849775644) rotate(0 22.159988403320312 12.5)">
        <text x="22.159988403320312" y="0" font-family="Virgil, Segoe UI Emoji" font-size="20px"
            fill="#000000" text-anchor="middle" style="white-space: pre;" direction="ltr"
            dominant-baseline="text-before-edge">ADD</text>
    </g>
    <g stroke-linecap="round"
        transform="translate(196.52164879439644 226.33442929646196) rotate(0 31.5 17.5)">
        <path
            d="M8.75 0 M8.75 0 C18.81 -1.6, 28.56 -0.7, 54.25 0 M8.75 0 C19.98 -0.23, 30.92 -1.03, 54.25 0 M54.25 0 C60.22 -1.99, 63.45 2.78, 63 8.75 M54.25 0 C61.3 1.91, 60.71 2.05, 63 8.75 M63 8.75 C64.4 16.53, 62.08 23.11, 63 26.25 M63 8.75 C63.67 14.27, 62.77 21.3, 63 26.25 M63 26.25 C62.3 31.99, 61.2 35.17, 54.25 35 M63 26.25 C62.52 30.54, 59.5 33.22, 54.25 35 M54.25 35 C39.78 36.31, 25.96 35.08, 8.75 35 M54.25 35 C36.62 35.26, 20.79 34.2, 8.75 35 M8.75 35 C1.02 36.64, -1.46 32.15, 0 26.25 M8.75 35 C3.18 33.57, 0.82 32.1, 0 26.25 M0 26.25 C0.27 21.42, 0.63 16.55, 0 8.75 M0 26.25 C0.37 22.38, 0.65 18.14, 0 8.75 M0 8.75 C-1.42 1.7, 4.42 0.4, 8.75 0 M0 8.75 C-1.69 2.96, 2.87 -0.83, 8.75 0"
            stroke="#000000" stroke-width="1" fill="none"></path>
    </g>
    <g transform="translate(220.9016536772091 231.33442929646196) rotate(0 7.1199951171875 12.5)">
        <text x="7.1199951171875" y="0" font-family="Virgil, Segoe UI Emoji" font-size="20px"
            fill="#000000" text-anchor="middle" style="white-space: pre;" direction="ltr"
            dominant-baseline="text-before-edge">2</text>
    </g>
    <g stroke-linecap="round"
        transform="translate(196.52164879439644 269.69698656057267) rotate(0 31.5 17.5)">
        <path
            d="M8.75 0 M8.75 0 C25.44 -0.17, 39.29 -1.5, 54.25 0 M8.75 0 C22.18 -0.9, 37.36 -0.92, 54.25 0 M54.25 0 C60.53 -0.14, 64.06 4.58, 63 8.75 M54.25 0 C57.8 -0.86, 64.86 0.83, 63 8.75 M63 8.75 C62.39 15.41, 64.06 19.53, 63 26.25 M63 8.75 C62.96 14.3, 62.84 19.33, 63 26.25 M63 26.25 C64.12 32.25, 59.66 33.66, 54.25 35 M63 26.25 C62.42 30.3, 59.98 35.43, 54.25 35 M54.25 35 C43.43 35.89, 36.72 33.88, 8.75 35 M54.25 35 C42.86 34.67, 30.9 36.05, 8.75 35 M8.75 35 C1.46 35.07, 0.23 30.84, 0 26.25 M8.75 35 C3.74 35.02, -0.22 32, 0 26.25 M0 26.25 C0.6 21.85, -1.35 17.48, 0 8.75 M0 26.25 C0.65 20.14, -0.71 14.03, 0 8.75 M0 8.75 C1.51 3.31, 1.45 0.04, 8.75 0 M0 8.75 C-0.04 2.08, 1.02 1.65, 8.75 0"
            stroke="#000000" stroke-width="1" fill="none"></path>
    </g>
    <g transform="translate(221.21165123580286 274.69698656057267) rotate(0 6.80999755859375 12.5)">
        <text x="6.80999755859375" y="0" font-family="Virgil, Segoe UI Emoji" font-size="20px"
            fill="#000000" text-anchor="middle" style="white-space: pre;" direction="ltr"
            dominant-baseline="text-before-edge">3</text>
    </g>
    <g stroke-linecap="round"
        transform="translate(196.52164879439644 353.83600270304083) rotate(0 31.5 17.5)">
        <path
            d="M8.75 0 M8.75 0 C18.29 -1.7, 29.98 -0.45, 54.25 0 M8.75 0 C21.71 -0.55, 34.75 0.37, 54.25 0 M54.25 0 C61.14 1.66, 61.01 2.17, 63 8.75 M54.25 0 C61.95 -2.09, 63.5 4.97, 63 8.75 M63 8.75 C63.83 14.63, 62.98 22.92, 63 26.25 M63 8.75 C62.66 12.69, 63.45 16.79, 63 26.25 M63 26.25 C62.58 30.74, 59.58 33.45, 54.25 35 M63 26.25 C62.9 32.51, 57.94 33.83, 54.25 35 M54.25 35 C37.96 33.6, 17.98 33.12, 8.75 35 M54.25 35 C37.36 35.57, 21.63 34.78, 8.75 35 M8.75 35 C3.14 33.75, 0.71 32.1, 0 26.25 M8.75 35 C2.7 34.91, -0.5 32.43, 0 26.25 M0 26.25 C-1.39 21.72, 0.53 16.17, 0 8.75 M0 26.25 C-0.77 20.36, 0.51 15.71, 0 8.75 M0 8.75 C-1.47 2.95, 2.88 -0.73, 8.75 0 M0 8.75 C-1.9 4.56, 3.49 -0.48, 8.75 0"
            stroke="#000000" stroke-width="1" fill="none"></path>
    </g>
    <g transform="translate(221.8416561186154 358.83600270304083) rotate(0 6.17999267578125 12.5)">
        <text x="6.17999267578125" y="0" font-family="Virgil, Segoe UI Emoji" font-size="20px"
            fill="#000000" text-anchor="middle" style="white-space: pre;" direction="ltr"
            dominant-baseline="text-before-edge">5</text>
    </g>
    <g stroke-linecap="round"
        transform="translate(65.32590766645865 63.77615923020039) rotate(0 17.5 20)">
        <path
            d="M8.75 0 M8.75 0 C13.81 -0.33, 18.1 -1.31, 26.25 0 M8.75 0 C12.5 0.11, 16.31 0.9, 26.25 0 M26.25 0 C30.09 -0.75, 36.62 1.1, 35 8.75 M26.25 0 C32.59 2.05, 36.46 1.91, 35 8.75 M35 8.75 C35.18 18.47, 33.67 24.47, 35 31.25 M35 8.75 C35.48 16.21, 34.71 22.84, 35 31.25 M35 31.25 C34.49 35.54, 31.99 40.37, 26.25 40 M35 31.25 C32.86 35.91, 34.08 38.39, 26.25 40 M26.25 40 C19.62 38.13, 15.76 39.53, 8.75 40 M26.25 40 C21.33 40.17, 17.79 39.6, 8.75 40 M8.75 40 C3.63 40.02, -0.19 37.01, 0 31.25 M8.75 40 C2.42 40.35, 0.33 37.9, 0 31.25 M0 31.25 C0.85 24.96, 0.29 18.25, 0 8.75 M0 31.25 C0.91 25.39, -0.57 19.15, 0 8.75 M0 8.75 C-0.04 2.19, 1.27 1.43, 8.75 0 M0 8.75 C0.58 2.43, 2.31 0.62, 8.75 0"
            stroke="#000000" stroke-width="1" fill="none"></path>
    </g>
    <g transform="translate(76.96653266645865 71.77615923020039) rotate(0 5.859375 12)">
        <text x="5.859375" y="0" font-family="Cascadia, Segoe UI Emoji" font-size="20px"
            fill="#000000" text-anchor="middle" style="white-space: pre;" direction="ltr"
            dominant-baseline="text-before-edge">2</text>
    </g>
    <g stroke-linecap="round"
        transform="translate(67.6909072064442 117.27232298175943) rotate(0 87 20)">
        <path
            d="M10 0 M10 0 C41.9 -1.25, 72.53 0.57, 164 0 M10 0 C41.42 0.94, 70.8 -0.27, 164 0 M164 0 C172.29 -1.82, 174.44 5.12, 174 10 M164 0 C172.13 -1, 175.35 4.52, 174 10 M174 10 C172.56 15.03, 174.57 20.2, 174 30 M174 10 C173.9 15.24, 173.86 21.04, 174 30 M174 30 C173.91 37.04, 168.81 38.98, 164 40 M174 30 C176 35.06, 171.24 41.51, 164 40 M164 40 C130.44 38.08, 93.75 36.57, 10 40 M164 40 C105.32 39.43, 46.76 40.06, 10 40 M10 40 C3.14 39.92, -0.43 36.97, 0 30 M10 40 C3.67 40.82, 0.62 34.92, 0 30 M0 30 C0.06 24.59, -0.68 14.36, 0 10 M0 30 C-0.88 25.23, -0.17 20.06, 0 10 M0 10 C-1.65 4.77, 3.84 -0.42, 10 0 M0 10 C-0.61 3.95, 1.69 1.01, 10 0"
            stroke="#000000" stroke-width="1" fill="none"></path>
    </g>
    <g
        transform="translate(129.07092734804576 124.77232298175943) rotate(0 25.619979858398438 12.5)">
        <text x="25.619979858398438" y="0" font-family="Virgil, Segoe UI Emoji" font-size="20px"
            fill="#000000" text-anchor="middle" style="white-space: pre;" direction="ltr"
            dominant-baseline="text-before-edge">World</text>
    </g>
    <g stroke-linecap="round"
        transform="translate(67.44120197505856 165.5378891789319) rotate(0 87 20)">
        <path
            d="M10 0 M10 0 C49.93 1.43, 91.77 1.74, 164 0 M10 0 C54.12 -1.66, 101.04 -2.19, 164 0 M164 0 C171.1 1.79, 175.27 2.46, 174 10 M164 0 C172.01 1.19, 173.36 3.41, 174 10 M174 10 C174.41 16.95, 173.76 26.41, 174 30 M174 10 C173.7 15.39, 173.91 22.52, 174 30 M174 30 C172.14 35.65, 172.4 38.6, 164 40 M174 30 C174.58 38.18, 168.93 38.76, 164 40 M164 40 C132.02 37.81, 103.89 38.24, 10 40 M164 40 C117.64 39.05, 70.47 39, 10 40 M10 40 C2.9 40.3, 0.29 37.38, 0 30 M10 40 C3.95 38.25, 1.27 37.45, 0 30 M0 30 C-0.63 21.52, -1.23 17.38, 0 10 M0 30 C0.13 23.24, -0.68 17.92, 0 10 M0 10 C0.5 2.91, 2.81 0.54, 10 0 M0 10 C-1.65 4.34, 2.58 -1.24, 10 0"
            stroke="#000000" stroke-width="1" fill="none"></path>
    </g>
    <g transform="translate(128.54123096675778 173.0378891789319) rotate(0 25.89997100830078 12.5)">
        <text x="25.89997100830078" y="0" font-family="Virgil, Segoe UI Emoji" font-size="20px"
            fill="#000000" text-anchor="middle" style="white-space: pre;" direction="ltr"
            dominant-baseline="text-before-edge">greet</text>
    </g>
    <g transform="translate(13.54351755441256 10) rotate(0 37.23997497558594 17.5)">
        <text x="0" y="0" font-family="Virgil, Segoe UI Emoji" font-size="28px" fill="#000000"
            text-anchor="start" style="white-space: pre;" direction="ltr"
            dominant-baseline="text-before-edge">Chunk</text>
    </g>
</svg>