<svg version="1.1" xmlns="http://www.w3.org/2000/svg" viewBox="0 0 920 321.5" width="920"
    height="321.5">
    <!-- svg-source:excalidraw -->

    <defs>
        <style class="style-fonts">
            @font-face {
            font-family: "Virgil";
            src: url("https://excalidraw.com/Virgil.woff2");
            }
            @font-face {
            font-family: "Cascadia";
            src: url("https://excalidraw.com/Cascadia.woff2");
            }
        </style>
    </defs>
    <rect x="0" y="0" width="920" height="321.5" fill="#ffffff"></rect>
    <g stroke-linecap="round" transform="translate(125 167.5) rotate(0 76.5 72)">
        <path
            d="M32 0 M32 0 C50.98 -0.05, 72.59 -0.32, 121 0 M32 0 C51.08 -1.06, 71.18 -0.33, 121 0 M121 0 C143.69 0.3, 154.39 9.87, 153 32 M121 0 C142.13 1.12, 150.81 11.03, 153 32 M153 32 C153.98 51.09, 154.27 67.87, 153 112 M153 32 C153.11 51.76, 153.2 72.17, 153 112 M153 112 C153.1 132.87, 143.88 144.36, 121 144 M153 112 C153.55 135.05, 144.27 144.54, 121 144 M121 144 C90.58 143.18, 61.08 146.19, 32 144 M121 144 C96.89 142.82, 73.26 143.26, 32 144 M32 144 C8.79 145.35, -1.58 134.98, 0 112 M32 144 C10.77 142.07, -1.75 133.85, 0 112 M0 112 C2.11 84.25, -0.02 53.37, 0 32 M0 112 C-0.84 80.47, -0.21 49.87, 0 32 M0 32 C-1.75 12.41, 8.81 0.94, 32 0 M0 32 C-0.24 10, 11.09 -1.63, 32 0"
            stroke="#000000" stroke-width="1" fill="none"></path>
    </g>
    <g transform="translate(168.72003173828125 227) rotate(0 32.77996826171875 12.5)">
        <text x="32.77996826171875" y="0" font-family="Virgil, Segoe UI Emoji" font-size="20px"
            fill="#000000" text-anchor="middle" style="white-space: pre;" direction="ltr"
            dominant-baseline="text-before-edge">Parser</text>
    </g>
    <g stroke-linecap="round" transform="translate(423 167.5) rotate(0 76.5 72)">
        <path
            d="M32 0 M32 0 C51.98 0.8, 66.98 -0.82, 121 0 M32 0 C59.85 1.29, 90.27 0.23, 121 0 M121 0 C142.77 1.88, 153.45 9.41, 153 32 M121 0 C140.8 0, 152.92 12.81, 153 32 M153 32 C154.64 48.8, 153.12 66.4, 153 112 M153 32 C152.35 50.33, 152.71 69.09, 153 112 M153 112 C151.93 134.48, 143.11 142.44, 121 144 M153 112 C151.53 133.82, 141.94 143.28, 121 144 M121 144 C89 144.44, 55.32 144.24, 32 144 M121 144 C95.76 144.75, 70.73 144.22, 32 144 M32 144 C11.22 144.95, -0.38 133.52, 0 112 M32 144 C10.33 144.87, 1.16 133.03, 0 112 M0 112 C0.43 86.71, -0.41 62.16, 0 32 M0 112 C0.32 82.3, -1.15 50.16, 0 32 M0 32 C1.14 11.59, 11.49 0.72, 32 0 M0 32 C1.39 9.63, 9.61 -1.5, 32 0"
            stroke="#000000" stroke-width="1" fill="none"></path>
    </g>
    <g transform="translate(461.6700439453125 227) rotate(0 37.8299560546875 12.5)">
        <text x="37.8299560546875" y="0" font-family="Virgil, Segoe UI Emoji" font-size="20px"
            fill="#000000" text-anchor="middle" style="white-space: pre;" direction="ltr"
            dominant-baseline="text-before-edge">Compiler</text>
    </g>
    <g stroke-linecap="round" transform="translate(757 167.5) rotate(0 76.5 72)">
        <path
            d="M32 0 M32 0 C56.89 0.59, 85.77 -0.52, 121 0 M32 0 C56.01 -1.19, 80.3 -1.34, 121 0 M121 0 C142.14 1.6, 152.68 11.79, 153 32 M121 0 C141.25 -1.98, 151.57 10.86, 153 32 M153 32 C154.46 61.63, 152.12 86.99, 153 112 M153 32 C152.03 51.78, 152.51 72.83, 153 112 M153 112 C154.32 132.73, 140.44 142.29, 121 144 M153 112 C155.26 134.54, 140.63 144.13, 121 144 M121 144 C90.96 145.05, 61.4 143.69, 32 144 M121 144 C92.54 145.51, 66.26 144.06, 32 144 M32 144 C11.87 144, -0.14 131.4, 0 112 M32 144 C8.84 144.43, -1.66 134.93, 0 112 M0 112 C-1.14 91.69, -1.28 73.41, 0 32 M0 112 C-0.59 82.84, 0.02 55.18, 0 32 M0 32 C0.15 11.46, 9.05 -1.76, 32 0 M0 32 C-1.9 9.09, 11.9 -0.87, 32 0"
            stroke="#000000" stroke-width="1" fill="none"></path>
    </g>
    <g transform="translate(796.2100296020508 214.5) rotate(0 37.28997039794922 25)">
        <text x="37.28997039794922" y="0" font-family="Virgil, Segoe UI Emoji" font-size="20px"
            fill="#000000" text-anchor="middle" style="white-space: pre;" direction="ltr"
            dominant-baseline="text-before-edge">Virtual </text>
        <text x="37.28997039794922" y="25" font-family="Virgil, Segoe UI Emoji" font-size="20px"
            fill="#000000" text-anchor="middle" style="white-space: pre;" direction="ltr"
            dominant-baseline="text-before-edge">Machine</text>
    </g>
    <g stroke-linecap="round" transform="translate(286 10) rotate(0 82 60)">
        <path
            d="M103.75 15.25 M103.75 15.25 C111.08 22.15, 118.6 27.98, 143.25 45.75 M103.75 15.25 C112.97 22.14, 122 28.81, 143.25 45.75 M143.25 45.75 C165.85 61.45, 163.52 62.53, 143.25 76.25 M143.25 45.75 C163.67 61.82, 165.59 59.57, 143.25 76.25 M143.25 76.25 C128.01 88.03, 114.44 97.26, 103.75 104.75 M143.25 76.25 C133.12 83.21, 123.64 90.23, 103.75 104.75 M103.75 104.75 C81.67 119.41, 84.07 120.86, 62.25 104.75 M103.75 104.75 C83.31 121.4, 84.74 121.2, 62.25 104.75 M62.25 104.75 C47.63 94.53, 29.53 82.29, 20.75 76.25 M62.25 104.75 C46.75 93.69, 33.73 84.52, 20.75 76.25 M20.75 76.25 C0.07 61.9, 0.4 61.06, 20.75 45.75 M20.75 76.25 C1.78 61.61, -1.91 60.35, 20.75 45.75 M20.75 45.75 C31.66 38.42, 41.85 30.18, 62.25 15.25 M20.75 45.75 C31.01 37.74, 42.54 30.87, 62.25 15.25 M62.25 15.25 C83.82 -0.51, 81.5 0.57, 103.75 15.25 M62.25 15.25 C81.35 -0.89, 83.74 2.14, 103.75 15.25"
            stroke="#000000" stroke-width="1" fill="none"></path>
    </g>
    <g transform="translate(347.3200149536133 57.5) rotate(0 20.67998504638672 12.5)">
        <text x="20.67998504638672" y="0" font-family="Virgil, Segoe UI Emoji" font-size="20px"
            fill="#000000" text-anchor="middle" style="white-space: pre;" direction="ltr"
            dominant-baseline="text-before-edge">AST</text>
    </g>
    <g stroke-linecap="round" transform="translate(10 10) rotate(0 80.5 60)">
        <path
            d="M101.25 15.25 M101.25 15.25 C109.84 23.64, 118.68 27.94, 140.75 45.75 M101.25 15.25 C113.58 24.57, 126.95 34.98, 140.75 45.75 M140.75 45.75 C159.81 61.49, 160.64 59.59, 140.75 76.25 M140.75 45.75 C162.88 58.89, 160.67 60.97, 140.75 76.25 M140.75 76.25 C129.63 83.44, 123.13 87.86, 101.25 104.75 M140.75 76.25 C126.53 85.23, 114.4 94.87, 101.25 104.75 M101.25 104.75 C79.84 120.29, 82.29 119.88, 60.75 104.75 M101.25 104.75 C80.04 122.03, 82.95 118.25, 60.75 104.75 M60.75 104.75 C43.43 94.74, 28.52 82.15, 20.25 76.25 M60.75 104.75 C49.35 96.4, 37.02 87.25, 20.25 76.25 M20.25 76.25 C1.09 59.99, -1.66 62.42, 20.25 45.75 M20.25 76.25 C-1.11 61.62, 2.29 62.68, 20.25 45.75 M20.25 45.75 C32.1 39.67, 43.09 27.41, 60.75 15.25 M20.25 45.75 C29.56 37.91, 40.81 30.09, 60.75 15.25 M60.75 15.25 C81.31 -0.82, 80.8 0.65, 101.25 15.25 M60.75 15.25 C81.32 -1.07, 82.6 0.98, 101.25 15.25"
            stroke="#000000" stroke-width="1" fill="none"></path>
    </g>
    <g transform="translate(58.6600341796875 57.5) rotate(0 32.0899658203125 12.5)">
        <text x="32.0899658203125" y="0" font-family="Virgil, Segoe UI Emoji" font-size="20px"
            fill="#000000" text-anchor="middle" style="white-space: pre;" direction="ltr"
            dominant-baseline="text-before-edge">Source</text>
    </g>
    <g stroke-linecap="round" transform="translate(621 10) rotate(0 91.5 60)">
        <path
            d="M115 15.25 M115 15.25 C129.71 26.2, 140.89 34.07, 160 45.75 M115 15.25 C125.3 23.33, 135.78 30.95, 160 45.75 M160 45.75 C184.42 61.69, 182.23 61.19, 160 76.25 M160 45.75 C184.35 62.91, 182.93 62.94, 160 76.25 M160 76.25 C142.95 84.65, 128.89 96.78, 115 104.75 M160 76.25 C148.81 83.77, 136.12 91.45, 115 104.75 M115 104.75 C93.73 120.28, 93.87 119.88, 69 104.75 M115 104.75 C91.21 121.39, 91.25 118.16, 69 104.75 M69 104.75 C50.28 94.42, 35.05 82.61, 23 76.25 M69 104.75 C57.13 96.54, 43.94 90.65, 23 76.25 M23 76.25 C0.4 59.23, 0.01 60.93, 23 45.75 M23 76.25 C0.74 60.95, -0.69 59.55, 23 45.75 M23 45.75 C40.59 31.8, 59.19 21.46, 69 15.25 M23 45.75 C35.89 37.65, 51.54 27.98, 69 15.25 M69 15.25 C93.17 -0.99, 91.92 -0.58, 115 15.25 M69 15.25 C93.93 -0.18, 90.4 -0.24, 115 15.25"
            stroke="#000000" stroke-width="1" fill="none"></path>
    </g>
    <g transform="translate(686.1500244140625 57.5) rotate(0 26.5999755859375 12.5)">
        <text x="26.5999755859375" y="0" font-family="Virgil, Segoe UI Emoji" font-size="20px"
            fill="#000000" text-anchor="middle" style="white-space: pre;" direction="ltr"
            dominant-baseline="text-before-edge">Chunk</text>
    </g>
    <g stroke-linecap="round">
        <g
            transform="translate(116.32902755350835 106.9957614285176) rotate(0 17.741508618211128 26.348330530107333)">
            <path
                d="M0.72 -1.01 C6.69 7.5, 30.29 43.34, 35.84 52.11 M-0.36 1.08 C5.52 10.32, 29.23 45.1, 35.35 53.7"
                stroke="#000000" stroke-width="1" fill="none"></path>
        </g>
        <g
            transform="translate(116.32902755350835 106.9957614285176) rotate(0 17.741508618211128 26.348330530107333)">
            <path
                d="M9.18 37.85 C18.62 39.9, 25.19 47, 35.97 54.34 M10.43 36.14 C17.58 41.56, 23.72 45.66, 35.06 54.6"
                stroke="#000000" stroke-width="1" fill="none"></path>
        </g>
        <g
            transform="translate(116.32902755350835 106.9957614285176) rotate(0 17.741508618211128 26.348330530107333)">
            <path
                d="M26.04 26.15 C30.47 31.85, 31.92 42.51, 35.97 54.34 M27.29 24.44 C30.1 33.08, 31.82 40.25, 35.06 54.6"
                stroke="#000000" stroke-width="1" fill="none"></path>
        </g>
    </g>
    <mask></mask>
    <g stroke-linecap="round">
        <g
            transform="translate(281.3413479746162 161.84895182001245) rotate(0 25.55716956443422 -27.485569692398244)">
            <path
                d="M-0.99 0.12 C7.58 -9.03, 43.46 -45.92, 52.1 -55.09 M0.69 -0.86 C9.08 -9.81, 42.62 -44.91, 51.39 -53.7"
                stroke="#000000" stroke-width="1" fill="none"></path>
        </g>
        <g
            transform="translate(281.3413479746162 161.84895182001245) rotate(0 25.55716956443422 -27.485569692398244)">
            <path
                d="M39.28 -25.59 C43.07 -37.38, 47.83 -45.24, 51.05 -55.15 M38.59 -26.26 C41.78 -34.15, 46.85 -42.87, 50.59 -53.6"
                stroke="#000000" stroke-width="1" fill="none"></path>
        </g>
        <g
            transform="translate(281.3413479746162 161.84895182001245) rotate(0 25.55716956443422 -27.485569692398244)">
            <path
                d="M24.58 -39.9 C33.62 -46.43, 43.65 -49.17, 51.05 -55.15 M23.89 -40.58 C31.74 -44.05, 41.39 -48.3, 50.59 -53.6"
                stroke="#000000" stroke-width="1" fill="none"></path>
        </g>
    </g>
    <mask></mask>
    <g stroke-linecap="round">
        <g
            transform="translate(402.3882763242814 108.69150512857462) rotate(0 14.916355717056945 22.893798003158963)">
            <path
                d="M1 1.06 C6.08 8.3, 25.21 36.75, 29.76 43.89 M0.07 0.57 C5.12 7.94, 24.68 37.8, 29.21 45.21"
                stroke="#000000" stroke-width="1" fill="none"></path>
        </g>
        <g
            transform="translate(402.3882763242814 108.69150512857462) rotate(0 14.916355717056945 22.893798003158963)">
            <path
                d="M9.97 30.34 C12.64 31.69, 17.76 37.33, 30.77 43.74 M8.2 29.09 C16.85 35.82, 23.92 41.27, 29.63 46.01"
                stroke="#000000" stroke-width="1" fill="none"></path>
        </g>
        <g
            transform="translate(402.3882763242814 108.69150512857462) rotate(0 14.916355717056945 22.893798003158963)">
            <path
                d="M25.25 20.61 C24.27 24.43, 25.71 32.42, 30.77 43.74 M23.47 19.36 C26.05 29.94, 27.04 39.25, 29.63 46.01"
                stroke="#000000" stroke-width="1" fill="none"></path>
        </g>
    </g>
    <mask></mask>
    <g stroke-linecap="round">
        <g
            transform="translate(587 173.35891468333904) rotate(0 41.89955559064511 -31.70209781265126)">
            <path
                d="M-0.72 -0.84 C13.44 -11.81, 70.48 -54.1, 84.52 -64.74 M1.11 1.34 C15.18 -9, 70.22 -52.82, 83.78 -63.67"
                stroke="#000000" stroke-width="1" fill="none"></path>
        </g>
        <g
            transform="translate(587 173.35891468333904) rotate(0 41.89955559064511 -31.70209781265126)">
            <path
                d="M66.73 -37.41 C70.55 -45.77, 74.79 -50.24, 81.89 -64.36 M67.26 -37.48 C72.78 -45.92, 77.74 -52.14, 83.11 -64.17"
                stroke="#000000" stroke-width="1" fill="none"></path>
        </g>
        <g
            transform="translate(587 173.35891468333904) rotate(0 41.89955559064511 -31.70209781265126)">
            <path
                d="M53.94 -53.46 C61.31 -57.48, 68.94 -57.69, 81.89 -64.36 M54.47 -53.53 C63.65 -57.27, 72.3 -58.85, 83.11 -64.17"
                stroke="#000000" stroke-width="1" fill="none"></path>
        </g>
    </g>
    <mask></mask>
    <g stroke-linecap="round">
        <g
            transform="translate(747.3988676684312 116.73844743053692) rotate(0 14.886979675211467 20.053476722811894)">
            <path
                d="M0.5 -0.33 C5.58 6.32, 25.34 33.22, 30.47 40.17 M-0.7 -1.55 C4.24 5.27, 24.33 34.81, 29.62 41.66"
                stroke="#000000" stroke-width="1" fill="none"></path>
        </g>
        <g
            transform="translate(747.3988676684312 116.73844743053692) rotate(0 14.886979675211467 20.053476722811894)">
            <path
                d="M8.26 27.76 C14.92 33.29, 23.09 34.56, 30.96 42.46 M8.91 26.79 C15.32 32.3, 24.35 38.4, 29.65 42.54"
                stroke="#000000" stroke-width="1" fill="none"></path>
        </g>
        <g
            transform="translate(747.3988676684312 116.73844743053692) rotate(0 14.886979675211467 20.053476722811894)">
            <path
                d="M22.25 17.7 C24.75 26.3, 28.73 30.58, 30.96 42.46 M22.91 16.74 C24.18 25.99, 28.16 35.72, 29.65 42.54"
                stroke="#000000" stroke-width="1" fill="none"></path>
        </g>
    </g>
    <mask></mask>
</svg>