<svg version="1.1" xmlns="http://www.w3.org/2000/svg"
    viewBox="0 0 1034.9766599932354 584.2142206859933" width="1034.9766599932354"
    height="584.2142206859933">
    <!-- svg-source:excalidraw -->

    <defs>
        <style class="style-fonts">
            @font-face {
            font-family: "Virgil";
            src: url("https://excalidraw.com/Virgil.woff2");
            }
            @font-face {
            font-family: "Cascadia";
            src: url("https://excalidraw.com/Cascadia.woff2");
            }
        </style>
    </defs>
    <rect x="0" y="0" width="1034.9766599932354" height="584.2142206859933" fill="#ffffff"></rect>
    <g stroke-linecap="round"
        transform="translate(757.0145278408335 76.07976887554435) rotate(269.50102884999615 46.5 19.999999999999986)">
        <path
            d="M10 0 M10 0 C40.08 -0.47, 69.31 0.75, 83 0 M10 0 C30.75 0.01, 52.58 0.42, 83 0 M83 0 C90.01 -1.31, 93.26 4.94, 93 10 M83 0 C90.21 -1.02, 93.75 3.44, 93 10 M93 10 C94.48 13.02, 94.01 18.18, 93 30 M93 10 C93.05 16.17, 93.34 22.56, 93 30 M93 30 C93.72 38.6, 88.3 39.23, 83 40 M93 30 C92.16 36.46, 91.6 38.42, 83 40 M83 40 C65.01 38.84, 49.29 38.71, 10 40 M83 40 C61.94 41.5, 41.31 39.71, 10 40 M10 40 C3.33 41.26, 1.23 35.19, 0 30 M10 40 C5.24 37.97, -1.97 36.37, 0 30 M0 30 C-1.86 25.58, -1.66 19.18, 0 10 M0 30 C0.71 24.12, 0.45 17.12, 0 10 M0 10 C0.02 5.09, 2.65 -0.68, 10 0 M0 10 C-1.7 5.29, 4.65 1.34, 10 0"
            stroke="#000000" stroke-width="1" fill="none"></path>
    </g>
    <g
        transform="translate(775.784555001478 83.57976887554435) rotate(269.50102884999615 27.72997283935547 12.5)">
        <text x="27.72997283935547" y="0" font-family="Virgil, Segoe UI Emoji" font-size="20px"
            fill="#000000" text-anchor="middle" style="white-space: pre;" direction="ltr"
            dominant-baseline="text-before-edge">Const</text>
    </g>
    <g stroke-linecap="round"
        transform="translate(839.668141841731 98.55233942509184) rotate(0 17.5 20)">
        <path
            d="M8.75 0 M8.75 0 C17.06 1.18, 21.91 1.66, 26.25 0 M8.75 0 C13.64 0.02, 17.03 -0.49, 26.25 0 M26.25 0 C32.34 1.61, 35.47 2.03, 35 8.75 M26.25 0 C32.83 0.1, 33.13 2.61, 35 8.75 M35 8.75 C36.2 15.13, 35.27 21.01, 35 31.25 M35 8.75 C35.55 14.2, 35.41 19.89, 35 31.25 M35 31.25 C33.63 36.31, 31.35 39.82, 26.25 40 M35 31.25 C36.94 35.5, 30.39 40.19, 26.25 40 M26.25 40 C19.47 38.38, 13.51 38.43, 8.75 40 M26.25 40 C19.03 39.3, 12.53 40.69, 8.75 40 M8.75 40 C4.14 38.53, 1.65 35.32, 0 31.25 M8.75 40 C0.94 39.71, -0.69 38.65, 0 31.25 M0 31.25 C-1.33 24.9, 0.9 19.23, 0 8.75 M0 31.25 C0.34 26.82, -0.16 22.21, 0 8.75 M0 8.75 C-0.68 2.24, 1.44 1.7, 8.75 0 M0 8.75 C1.32 4.25, 4.83 0.24, 8.75 0"
            stroke="#000000" stroke-width="1" fill="none"></path>
    </g>
    <g transform="translate(851.308766841731 106.55233942509184) rotate(0 5.859375 12)">
        <text x="5.859375" y="0" font-family="Cascadia, Segoe UI Emoji" font-size="20px"
            fill="#000000" text-anchor="middle" style="white-space: pre;" direction="ltr"
            dominant-baseline="text-before-edge">O</text>
    </g>
    <g stroke-linecap="round"
        transform="translate(840.0401784964273 48.51291138549499) rotate(0 17.5 20)">
        <path
            d="M8.75 0 M8.75 0 C13.86 1.55, 18.3 -0.24, 26.25 0 M8.75 0 C13.3 -0.56, 17.66 0.72, 26.25 0 M26.25 0 C32.56 -0.89, 35.65 3.01, 35 8.75 M26.25 0 C30.22 -0.3, 35.21 4.65, 35 8.75 M35 8.75 C35.21 12.32, 33.64 19.64, 35 31.25 M35 8.75 C35.47 16.62, 34.43 22.18, 35 31.25 M35 31.25 C34.27 36.91, 33.77 38.62, 26.25 40 M35 31.25 C33.31 37.27, 33.36 38.33, 26.25 40 M26.25 40 C22.07 38.42, 20.1 39.11, 8.75 40 M26.25 40 C19.56 40.38, 13.4 39.19, 8.75 40 M8.75 40 C4.57 38.23, -1.72 36.83, 0 31.25 M8.75 40 C2.22 41.57, -0.43 35.1, 0 31.25 M0 31.25 C0.88 24.02, -1.42 17.09, 0 8.75 M0 31.25 C-0.1 23.52, -0.46 13.7, 0 8.75 M0 8.75 C-1.48 4.62, 4.06 1.16, 8.75 0 M0 8.75 C1.92 3.15, 1.3 -0.53, 8.75 0"
            stroke="#000000" stroke-width="1" fill="none"></path>
    </g>
    <g transform="translate(851.6808034964273 56.51291138549499) rotate(0 5.859375 12)">
        <text x="5.859375" y="0" font-family="Cascadia, Segoe UI Emoji" font-size="20px"
            fill="#000000" text-anchor="middle" style="white-space: pre;" direction="ltr"
            dominant-baseline="text-before-edge">1</text>
    </g>
    <g stroke-linecap="round"
        transform="translate(840.2656668842395 49.37206837169174) rotate(0 87 20)">
        <path
            d="M10 0 M10 0 C69.91 2, 131.63 0.45, 164 0 M10 0 C46.36 -1.68, 82.57 -1.19, 164 0 M164 0 C169.04 -0.26, 174.18 4.84, 174 10 M164 0 C169.11 1.19, 173.34 3.44, 174 10 M174 10 C173.99 15.35, 174.58 19.41, 174 30 M174 10 C173.5 17.85, 174.7 25.18, 174 30 M174 30 C172.53 36.83, 171.77 38.54, 164 40 M174 30 C172.2 35.93, 168.72 39.6, 164 40 M164 40 C132.04 38.54, 94.85 39.35, 10 40 M164 40 C108.94 37.98, 51.37 38.74, 10 40 M10 40 C2.73 41.36, -0.38 34.94, 0 30 M10 40 C4.46 38.24, -0.03 37.48, 0 30 M0 30 C1.81 24.39, 1.21 16.76, 0 10 M0 30 C-0.67 23.1, 0.64 15.07, 0 10 M0 10 C1.67 3.54, 1.93 -0.46, 10 0 M0 10 C1.76 3.34, 3.6 -1.75, 10 0"
            stroke="#000000" stroke-width="1" fill="none"></path>
    </g>
    <g transform="translate(894.1057013691028 56.87206837169174) rotate(0 33.15996551513672 12.5)">
        <text x="33.15996551513672" y="0" font-family="Virgil, Segoe UI Emoji" font-size="20px"
            fill="#000000" text-anchor="middle" style="white-space: pre;" direction="ltr"
            dominant-baseline="text-before-edge">fn:hello</text>
    </g>
    <g stroke-linecap="round"
        transform="translate(840.0159616528539 97.63763456886417) rotate(0 87 20)">
        <path
            d="M10 0 M10 0 C54.95 -1.11, 98.89 -1.2, 164 0 M10 0 C68.91 0.73, 126.36 0.55, 164 0 M164 0 C170.85 1.5, 172.65 4.37, 174 10 M164 0 C170.01 0.11, 172.1 1.63, 174 10 M174 10 C174.74 17.15, 175.95 21.5, 174 30 M174 10 C174.77 14.54, 173.19 20.54, 174 30 M174 30 C175.11 35.21, 169.1 39.36, 164 40 M174 30 C172.05 36.27, 168.79 42.12, 164 40 M164 40 C122.37 39.37, 85.87 40.6, 10 40 M164 40 C128.29 38.51, 94 39.32, 10 40 M10 40 C2.96 38.28, 0.98 35.14, 0 30 M10 40 C3.31 40.81, 0.72 34.84, 0 30 M0 30 C0.89 22.47, 1.59 14.21, 0 10 M0 30 C0.72 25.26, 0.98 19.46, 0 10 M0 10 C-1.4 2.88, 4.87 0, 10 0 M0 10 C0.27 1.58, 2.96 2.14, 10 0"
            stroke="#000000" stroke-width="1" fill="none"></path>
    </g>
    <g transform="translate(899.2459878979711 105.13763456886417) rotate(0 27.769973754882812 12.5)">
        <text x="27.769973754882812" y="0" font-family="Virgil, Segoe UI Emoji" font-size="20px"
            fill="#000000" text-anchor="middle" style="white-space: pre;" direction="ltr"
            dominant-baseline="text-before-edge">"hello"</text>
    </g>
    <g stroke-linecap="round"
        transform="translate(746.4115538283248 193.95754246331873) rotate(269.23701463560457 59 21.5)">
        <path
            d="M10.75 0 M10.75 0 C38.8 0.8, 66.71 0.38, 107.25 0 M10.75 0 C47.41 -0.03, 83.14 -0.18, 107.25 0 M107.25 0 C113.98 0.82, 118.5 3, 118 10.75 M107.25 0 C113.76 1.13, 115.99 3.17, 118 10.75 M118 10.75 C116.46 17.09, 116.34 27.66, 118 32.25 M118 10.75 C118.24 18.04, 118.46 25.7, 118 32.25 M118 32.25 C116.21 37.56, 113.76 42.55, 107.25 43 M118 32.25 C116.15 39.78, 115.38 42.29, 107.25 43 M107.25 43 C75.42 45.69, 45.12 45.46, 10.75 43 M107.25 43 C83.63 43.8, 61.89 43.54, 10.75 43 M10.75 43 C4.73 44.9, 0.56 40.12, 0 32.25 M10.75 43 C3.48 41.38, 0.94 39.18, 0 32.25 M0 32.25 C1.88 23.98, 1.85 16.74, 0 10.75 M0 32.25 C-0.66 24.01, 0.07 17.58, 0 10.75 M0 10.75 C-0.12 5.03, 3.34 -0.76, 10.75 0 M0 10.75 C-0.12 1.33, 4.29 2.04, 10.75 0"
            stroke="#000000" stroke-width="1" fill="none"></path>
    </g>
    <g
        transform="translate(787.7915739699264 202.95754246331873) rotate(269.23701463560457 17.619979858398438 12.5)">
        <text x="17.619979858398438" y="0" font-family="Virgil, Segoe UI Emoji" font-size="20px"
            fill="#000000" text-anchor="middle" style="white-space: pre;" direction="ltr"
            dominant-baseline="text-before-edge">Ops</text>
    </g>
    <g stroke-linecap="round"
        transform="translate(845.2131136178858 156.03704417757214) rotate(0 57.5 17.5)">
        <path
            d="M8.75 0 M8.75 0 C37.53 0.03, 70.4 -0.09, 106.25 0 M8.75 0 C38.41 -0.15, 69.74 0.31, 106.25 0 M106.25 0 C112.59 -0.58, 114.43 3.9, 115 8.75 M106.25 0 C110.07 -0.41, 116.53 3.23, 115 8.75 M115 8.75 C113.38 15.51, 115.44 21.56, 115 26.25 M115 8.75 C115.27 15.2, 114.23 19.74, 115 26.25 M115 26.25 C114.35 31.64, 110.48 35.31, 106.25 35 M115 26.25 C115.96 31.37, 112.41 34.74, 106.25 35 M106.25 35 C67.72 37.62, 30.82 37.71, 8.75 35 M106.25 35 C68.98 34.66, 31.44 35.91, 8.75 35 M8.75 35 C3.47 35.7, -0.09 30.68, 0 26.25 M8.75 35 C3.85 34.77, 0.83 31.99, 0 26.25 M0 26.25 C1.44 18.33, 0.86 13.5, 0 8.75 M0 26.25 C0.28 21.34, 0.04 15.78, 0 8.75 M0 8.75 C-0.25 2.16, 2.81 -1.96, 8.75 0 M0 8.75 C0.7 4.96, 2.62 -1.07, 8.75 0"
            stroke="#000000" stroke-width="1" fill="none"></path>
    </g>
    <g transform="translate(868.4531419992335 161.03704417757214) rotate(0 34.259971618652344 12.5)">
        <text x="34.259971618652344" y="0" font-family="Virgil, Segoe UI Emoji" font-size="20px"
            fill="#000000" text-anchor="middle" style="white-space: pre;" direction="ltr"
            dominant-baseline="text-before-edge">CONST</text>
    </g>
    <g stroke-linecap="round"
        transform="translate(845.2131136178858 197.95529826253684) rotate(0 58 17.5)">
        <path
            d="M2.33 2.02 C2.33 2.02, 2.33 2.02, 2.33 2.02 M2.33 2.02 C2.33 2.02, 2.33 2.02, 2.33 2.02 M0.76 9.93 C2.76 8.16, 3.38 4.71, 9.28 0.12 M0.76 9.93 C3.02 8.03, 4.42 5.76, 9.28 0.12 M1.15 15.57 C3.52 10.06, 9.26 4.13, 14.27 0.48 M1.15 15.57 C5.37 10.74, 10.18 5.34, 14.27 0.48 M1.54 21.22 C7.71 14.48, 17.97 2.88, 19.91 0.09 M1.54 21.22 C7.47 15.97, 12.61 9.11, 19.91 0.09 M1.28 27.62 C8.25 20.22, 15.35 13.46, 24.9 0.45 M1.28 27.62 C10.2 17.28, 20.74 6.18, 24.9 0.45 M2.99 31.75 C11.32 23.86, 18.01 16.02, 29.89 0.81 M2.99 31.75 C10.36 24.79, 16.98 15.32, 29.89 0.81 M5.35 35.13 C15.67 24.35, 21.97 13.36, 35.53 0.41 M5.35 35.13 C15.98 24.01, 26.01 11.16, 35.53 0.41 M11 34.73 C16.36 26.27, 24.88 20.91, 40.52 0.77 M11 34.73 C23.14 21.26, 33.58 9.69, 40.52 0.77 M15.98 35.09 C25.59 23.25, 33.01 16.36, 46.16 0.38 M15.98 35.09 C25.31 24.5, 34.71 13.72, 46.16 0.38 M21.63 34.7 C31.54 21.51, 45.2 6.34, 51.15 0.74 M21.63 34.7 C29.42 26.15, 34.81 19.89, 51.15 0.74 M26.61 35.06 C36.62 24.19, 44.98 11.24, 56.79 0.34 M26.61 35.06 C37.43 21.24, 49.66 9.91, 56.79 0.34 M31.6 35.42 C39.15 23.61, 50.07 15.44, 61.78 0.7 M31.6 35.42 C41.35 24.78, 50.88 15.11, 61.78 0.7 M37.24 35.02 C44.76 23.78, 54.58 13.95, 67.42 0.31 M37.24 35.02 C48.57 21.65, 61.61 7.55, 67.42 0.31 M42.23 35.38 C48.56 27.01, 57.16 16.54, 72.41 0.67 M42.23 35.38 C49.56 28.9, 54.55 20.89, 72.41 0.67 M47.87 34.99 C53.48 28.21, 61.51 18.43, 77.4 1.03 M47.87 34.99 C58.69 22.54, 69.36 8.67, 77.4 1.03 M52.86 35.35 C61.66 27.59, 67.73 18.16, 83.04 0.63 M52.86 35.35 C65.77 22.09, 76.3 8.06, 83.04 0.63 M58.5 34.96 C68.93 25.2, 77.25 13.47, 88.03 0.99 M58.5 34.96 C65.66 26.11, 73.98 16.64, 88.03 0.99 M63.49 35.32 C68.86 26.51, 76.5 20.87, 93.67 0.6 M63.49 35.32 C71.57 24.54, 81.14 14.17, 93.67 0.6 M69.13 34.92 C81.11 24.96, 90.54 11.65, 98.66 0.96 M69.13 34.92 C79.72 22.56, 90.47 9.6, 98.66 0.96 M74.12 35.28 C86.91 23.7, 96.78 11, 104.3 0.56 M74.12 35.28 C84.6 22.86, 96.37 10.15, 104.3 0.56 M79.11 35.64 C88.52 23, 99.56 12.36, 109.29 0.92 M79.11 35.64 C89.64 24.87, 98.74 13.13, 109.29 0.92 M84.75 35.25 C95.92 21.34, 107.6 9.22, 112.96 2.79 M84.75 35.25 C90.76 27.79, 96.02 20.56, 112.96 2.79 M89.74 35.61 C98.2 28.52, 105.03 18.9, 115.98 5.42 M89.74 35.61 C99.15 23.32, 109.75 13.64, 115.98 5.42 M95.38 35.21 C99.39 30.7, 106.1 24.84, 115.72 11.82 M95.38 35.21 C101.88 27.11, 108.68 18.69, 115.72 11.82 M100.37 35.57 C105.46 30.6, 113.97 19.89, 116.11 17.46 M100.37 35.57 C104.01 30.45, 109.12 27.02, 116.11 17.46 M106.01 35.18 C108.86 32.65, 112.02 29.04, 115.85 23.86 M106.01 35.18 C108.77 31.24, 112.46 27.19, 115.85 23.86"
            stroke="#40c057" stroke-width="0.5" fill="none"></path>
        <path
            d="M8.75 0 M8.75 0 C35.48 -1.5, 63.69 0.52, 107.25 0 M8.75 0 C36.77 0.45, 65.05 0.99, 107.25 0 M107.25 0 C115.08 -0.6, 116.24 1.75, 116 8.75 M107.25 0 C111.06 -1.01, 118.29 2.62, 116 8.75 M116 8.75 C117.55 15.96, 115.9 19.41, 116 26.25 M116 8.75 C116.77 15.25, 115.32 22.16, 116 26.25 M116 26.25 C115.09 30.6, 112.68 35.54, 107.25 35 M116 26.25 C118.18 33.04, 112.8 33.31, 107.25 35 M107.25 35 C68.61 36.46, 30.27 36.53, 8.75 35 M107.25 35 C87.38 35.9, 66.23 34.59, 8.75 35 M8.75 35 C1.57 33.7, -0.88 34.07, 0 26.25 M8.75 35 C4.74 36.45, -2.13 34.07, 0 26.25 M0 26.25 C0.06 19.66, 1.07 13.18, 0 8.75 M0 26.25 C-0.16 20.26, 0.57 16.47, 0 8.75 M0 8.75 C1.49 2.85, 1.33 -1.5, 8.75 0 M0 8.75 C2.19 2.77, 1.71 -0.25, 8.75 0"
            stroke="#000000" stroke-width="1" fill="none"></path>
    </g>
    <g transform="translate(878.2331255197413 202.95529826253684) rotate(0 24.97998809814453 12.5)">
        <text x="24.97998809814453" y="0" font-family="Virgil, Segoe UI Emoji" font-size="20px"
            fill="#000000" text-anchor="middle" style="white-space: pre;" direction="ltr"
            dominant-baseline="text-before-edge">CALL</text>
    </g>
    <g stroke-linecap="round"
        transform="translate(969.8725874426649 154.96040483632848) rotate(0 21 17.5)">
        <path
            d="M8.75 0 M8.75 0 C14.62 0.56, 18.25 -0.52, 33.25 0 M8.75 0 C17.97 0.18, 26.14 -0.74, 33.25 0 M33.25 0 C37.54 -1.69, 43.15 3.58, 42 8.75 M33.25 0 C40.81 0.85, 42.18 3.2, 42 8.75 M42 8.75 C40.49 13.95, 41.72 18.89, 42 26.25 M42 8.75 C42.2 14.18, 42.78 19.15, 42 26.25 M42 26.25 C43.92 30.64, 40.77 33.74, 33.25 35 M42 26.25 C44.05 34.07, 37.41 34.91, 33.25 35 M33.25 35 C26.77 35.7, 17.18 35.05, 8.75 35 M33.25 35 C27.99 34.93, 23 35.91, 8.75 35 M8.75 35 C1.87 36.84, -1.05 33.25, 0 26.25 M8.75 35 C4.56 35.4, -1.17 30.85, 0 26.25 M0 26.25 C1.14 20.4, -0.79 14.89, 0 8.75 M0 26.25 C-0.17 22.31, -0.18 19.69, 0 8.75 M0 8.75 C0.61 4.82, 2.14 -0.42, 8.75 0 M0 8.75 C-2.13 4.03, 3.84 -0.93, 8.75 0"
            stroke="#000000" stroke-width="1" fill="none"></path>
    </g>
    <g transform="translate(988.1625883581922 159.96040483632848) rotate(0 2.7099990844726562 12.5)">
        <text x="2.7099990844726562" y="0" font-family="Virgil, Segoe UI Emoji" font-size="20px"
            fill="#000000" text-anchor="middle" style="white-space: pre;" direction="ltr"
            dominant-baseline="text-before-edge">1</text>
    </g>
    <g stroke-linecap="round"
        transform="translate(32.17444298814044 122.5280655977393) rotate(0 25.5 25.5)">
        <path
            d="M12.75 0 M12.75 0 C22.32 -0.71, 29.39 -1.56, 38.25 0 M12.75 0 C20.56 0.99, 30.14 -0.06, 38.25 0 M38.25 0 C48.39 -0.51, 49.59 2.57, 51 12.75 M38.25 0 C45.64 1.45, 51.11 4.77, 51 12.75 M51 12.75 C50.27 17.86, 49.51 22.74, 51 38.25 M51 12.75 C51.36 18.29, 50.89 25.73, 51 38.25 M51 38.25 C51.62 46.83, 45.32 49.11, 38.25 51 M51 38.25 C50.71 48.16, 45.09 50.64, 38.25 51 M38.25 51 C31.54 52.06, 22.99 49.41, 12.75 51 M38.25 51 C32.59 50.89, 24.45 51.76, 12.75 51 M12.75 51 C5.52 51.02, -0.87 47.19, 0 38.25 M12.75 51 C2.7 49.5, -2.27 48.64, 0 38.25 M0 38.25 C-0.39 29.39, -1.42 22.12, 0 12.75 M0 38.25 C-0.87 30.15, 0.06 23.47, 0 12.75 M0 12.75 C1.44 5.68, 2.71 1.27, 12.75 0 M0 12.75 C0.46 4.61, 6.4 -1.8, 12.75 0"
            stroke="#000000" stroke-width="1" fill="none"></path>
    </g>
    <g
        transform="translate(51.018704157574035 135.10536028372965) rotate(0 6.655738830566406 12.922705314009676)">
        <text x="6.655738830566406" y="0" font-family="Virgil, Segoe UI Emoji"
            font-size="20.67632850241546px" fill="#000000" text-anchor="middle"
            style="white-space: pre;" direction="ltr" dominant-baseline="text-before-edge">N</text>
    </g>
    <g stroke-linecap="round"
        transform="translate(86.74207583838202 122.5280655977393) rotate(0 80 25.5)">
        <path
            d="M12.75 0 M12.75 0 C48.49 -1.11, 86.85 1.67, 147.25 0 M12.75 0 C41.29 -1.31, 69.14 -1.27, 147.25 0 M147.25 0 C154.34 -1.68, 159.04 5.51, 160 12.75 M147.25 0 C155.86 0.52, 158.18 2.75, 160 12.75 M160 12.75 C158.6 20.71, 158.84 31.59, 160 38.25 M160 12.75 C159.93 22.26, 160.39 30.88, 160 38.25 M160 38.25 C158.57 44.86, 155.5 52.22, 147.25 51 M160 38.25 C158.34 46.39, 156.41 53.03, 147.25 51 M147.25 51 C110.53 50.2, 69.96 52.57, 12.75 51 M147.25 51 C117.81 52.13, 90.3 51.16, 12.75 51 M12.75 51 C3.38 51.44, -1.35 45.44, 0 38.25 M12.75 51 C1.98 52.89, 0.42 46.12, 0 38.25 M0 38.25 C-1.43 29.76, 0.17 21.69, 0 12.75 M0 38.25 C0.35 32.51, 0.92 25.86, 0 12.75 M0 12.75 C-1.54 5.52, 4.65 0.31, 12.75 0 M0 12.75 C2.15 2.45, 1.97 -2.12, 12.75 0"
            stroke="#000000" stroke-width="1" fill="none"></path>
    </g>
    <g
        transform="translate(160.12768069678046 135.10536028372965) rotate(0 6.6143951416015625 12.922705314009676)">
        <text x="6.6143951416015625" y="0" font-family="Virgil, Segoe UI Emoji"
            font-size="20.67632850241546px" fill="#000000" text-anchor="middle"
            style="white-space: pre;" direction="ltr" dominant-baseline="text-before-edge">6</text>
    </g>
    <g transform="translate(36.024393423440785 65.1764043048374) rotate(0 82.47396850585938 17.5)">
        <text x="0" y="0" font-family="Virgil, Segoe UI Emoji" font-size="28px" fill="#000000"
            text-anchor="start" style="white-space: pre;" direction="ltr"
            dominant-baseline="text-before-edge">Value Stack</text>
    </g>
    <g transform="translate(448.4778823935443 41.62136003272391) rotate(0 72.323974609375 17.5)">
        <text x="0" y="0" font-family="Virgil, Segoe UI Emoji" font-size="28px" fill="#000000"
            text-anchor="start" style="white-space: pre;" direction="ltr"
            dominant-baseline="text-before-edge">Call Stack</text>
    </g>
    <g stroke-linecap="round"
        transform="translate(32.84669182977623 182.95749612278584) rotate(0 25.5 25.5)">
        <path
            d="M12.75 0 M12.75 0 C17.27 2, 23.95 -1.57, 38.25 0 M12.75 0 C19.09 -0.75, 23.99 -0.46, 38.25 0 M38.25 0 C46.88 0.08, 49.32 3.36, 51 12.75 M38.25 0 C44.57 0.62, 51.73 4.09, 51 12.75 M51 12.75 C52.15 20.95, 52.04 33.42, 51 38.25 M51 12.75 C51.87 20.64, 50.42 28.28, 51 38.25 M51 38.25 C52.01 47.86, 47.67 51.58, 38.25 51 M51 38.25 C52.36 48.51, 46.7 53.1, 38.25 51 M38.25 51 C29.9 49.13, 18.66 52.74, 12.75 51 M38.25 51 C31.18 51.88, 25.67 51.6, 12.75 51 M12.75 51 C4.04 51.74, -0.31 47.61, 0 38.25 M12.75 51 C2.67 51.1, -1.94 48.05, 0 38.25 M0 38.25 C1.89 31.63, 0.94 20.17, 0 12.75 M0 38.25 C-0.74 33.14, -0.68 26.94, 0 12.75 M0 12.75 C-0.19 3.99, 4.27 0.84, 12.75 0 M0 12.75 C0.05 1.99, 6.24 -0.81, 12.75 0"
            stroke="#000000" stroke-width="1" fill="none"></path>
    </g>
    <g
        transform="translate(51.69095299920983 195.5347908087762) rotate(0 6.655738830566406 12.922705314009676)">
        <text x="6.655738830566406" y="0" font-family="Virgil, Segoe UI Emoji"
            font-size="20.67632850241546px" fill="#000000" text-anchor="middle"
            style="white-space: pre;" direction="ltr" dominant-baseline="text-before-edge">N</text>
    </g>
    <g stroke-linecap="round"
        transform="translate(87.41432468001736 182.95749612278584) rotate(0 80 25.5)">
        <path
            d="M12.75 0 M12.75 0 C46.7 -2.95, 79.02 -0.14, 147.25 0 M12.75 0 C63.69 0.48, 114.58 0.78, 147.25 0 M147.25 0 C154.07 -0.89, 158.11 4.79, 160 12.75 M147.25 0 C156.48 -0.16, 162.12 4.21, 160 12.75 M160 12.75 C161.19 20.41, 160.62 27.27, 160 38.25 M160 12.75 C159.55 18.79, 160.71 27.31, 160 38.25 M160 38.25 C160.92 47.33, 156.93 52.53, 147.25 51 M160 38.25 C159.95 48.85, 157.89 48.82, 147.25 51 M147.25 51 C113.78 51.69, 78.37 48.83, 12.75 51 M147.25 51 C105.36 52.71, 63.08 52.51, 12.75 51 M12.75 51 C3.94 51.86, -1.38 46.84, 0 38.25 M12.75 51 C2.31 52.3, 0.72 45.32, 0 38.25 M0 38.25 C0.56 31.1, -1.75 25.07, 0 12.75 M0 38.25 C-0.61 29.14, 0.13 19.69, 0 12.75 M0 12.75 C0.02 5.09, 4.29 -1.97, 12.75 0 M0 12.75 C1.99 3.44, 2.87 -0.01, 12.75 0"
            stroke="#000000" stroke-width="1" fill="none"></path>
    </g>
    <g
        transform="translate(161.85409823958767 195.5347908087762) rotate(0 5.5602264404296875 12.922705314009676)">
        <text x="5.5602264404296875" y="0" font-family="Virgil, Segoe UI Emoji"
            font-size="20.67632850241546px" fill="#000000" text-anchor="middle"
            style="white-space: pre;" direction="ltr" dominant-baseline="text-before-edge">7</text>
    </g>
    <g stroke-linecap="round">
        <g
            transform="translate(11.528945754896853 241.08249612278584) rotate(0 131.80652148422783 1.6061980409733962)">
            <path
                d="M-0.05 0.79 C44.21 1.18, 221.09 1.43, 265.14 1.79 M-1.53 0.16 C42.69 0.75, 220.54 2.92, 264.72 3.05"
                stroke="#000000" stroke-width="1" fill="none"></path>
        </g>
    </g>
    <mask></mask>
    <g
        transform="translate(258.64613325489665 124.3793711227859) rotate(0 11.634765625 54.337890625)"
        stroke="none">
        <path fill="#000000"
            d="M 0,-2.60 Q 0,-2.60 1.11,-2.63 2.23,-2.65 4.33,-2.70 6.43,-2.75 7.90,-2.72 9.37,-2.69 10.51,-2.70 11.65,-2.72 12.72,-2.74 13.79,-2.76 15.24,-2.82 16.70,-2.89 17.91,-2.96 19.13,-3.03 20.70,-2.70 22.27,-2.38 22.93,-1.33 23.59,-0.27 23.68,0.85 23.76,1.98 23.81,3.09 23.86,4.21 23.89,5.55 23.92,6.89 23.93,8.11 23.94,9.34 23.92,11.16 23.89,12.98 23.89,14.60 23.88,16.23 23.87,17.96 23.86,19.69 23.84,21.55 23.82,23.41 23.77,24.66 23.73,25.90 23.71,27.07 23.68,28.24 23.70,29.30 23.72,30.36 23.83,32.48 23.95,34.60 23.97,35.71 23.99,36.81 24.03,37.90 24.08,38.99 24.16,40.13 24.23,41.28 24.28,42.48 24.33,43.68 24.36,44.81 24.38,45.95 24.39,47.07 24.40,48.18 24.42,49.39 24.44,50.60 24.52,51.66 24.60,52.73 24.60,54.39 24.60,56.05 24.58,57.62 24.57,59.20 24.58,60.46 24.60,61.73 24.62,62.83 24.64,63.93 24.85,65.53 25.05,67.14 25.16,68.67 25.28,70.19 25.34,71.31 25.40,72.42 25.57,73.77 25.73,75.12 25.84,76.58 25.95,78.04 26.10,79.73 26.25,81.41 26.33,83.36 26.42,85.30 26.55,87.07 26.68,88.84 26.71,90.38 26.75,91.93 26.78,93.01 26.80,94.09 26.84,95.20 26.88,96.31 26.92,97.45 26.97,98.58 27.00,99.68 27.02,100.79 27.05,102.08 27.07,103.37 27.10,104.55 27.12,105.74 26.99,107.24 26.86,108.75 25.87,109.90 24.88,111.05 23.70,111.37 22.53,111.69 21.42,111.71 20.31,111.73 19.07,111.74 17.82,111.74 16.63,111.72 15.44,111.71 14.09,111.71 12.74,111.72 11.22,111.87 9.70,112.02 8.22,112.17 6.75,112.32 5.57,112.34 4.39,112.36 2.12,112.36 -0.15,112.37 -0.74,112.27 -1.33,112.18 -1.86,111.90 -2.39,111.62 -2.80,111.18 -3.21,110.75 -3.46,110.20 -3.71,109.66 -3.78,109.07 -3.84,108.47 -3.71,107.89 -3.59,107.30 -3.28,106.79 -2.97,106.28 -2.51,105.89 -2.06,105.50 -1.50,105.28 -0.94,105.06 -0.35,105.02 0.24,104.99 0.82,105.15 1.40,105.31 1.89,105.65 2.39,105.98 2.75,106.46 3.11,106.94 3.30,107.51 3.49,108.07 3.49,108.67 3.49,109.27 3.30,109.84 3.11,110.40 2.75,110.88 2.39,111.36 1.89,111.69 1.39,112.03 0.82,112.19 0.24,112.35 -0.35,112.32 -0.94,112.28 -1.50,112.06 -2.06,111.84 -2.51,111.45 -2.97,111.07 -3.28,110.55 -3.59,110.04 -3.71,109.45 -3.84,108.87 -3.78,108.28 -3.71,107.68 -3.46,107.14 -3.21,106.59 -2.80,106.16 -2.39,105.72 -1.86,105.44 -1.33,105.16 -0.74,105.07 -0.15,104.97 -0.15,104.97 -0.15,104.97 1.77,104.97 3.70,104.98 5.08,104.98 6.46,104.98 7.62,104.86 8.77,104.74 9.93,104.61 11.09,104.49 12.54,104.38 13.98,104.27 15.25,104.25 16.52,104.23 17.95,104.22 19.37,104.21 20.64,104.26 21.91,104.31 20.85,105.03 19.79,105.74 19.81,104.55 19.84,103.37 19.86,102.08 19.89,100.79 19.92,99.68 19.94,98.58 19.99,97.45 20.03,96.32 20.07,95.21 20.11,94.11 20.12,93.05 20.14,91.99 20.13,90.59 20.12,89.19 19.98,87.46 19.84,85.74 19.71,83.95 19.58,82.16 19.45,80.66 19.32,79.15 19.35,77.63 19.37,76.11 19.30,74.69 19.22,73.27 19.28,71.81 19.34,70.34 19.34,69.03 19.35,67.73 19.25,65.84 19.14,63.96 19.15,62.87 19.17,61.78 19.16,60.54 19.15,59.30 19.07,57.80 18.99,56.30 18.85,54.74 18.71,53.18 18.62,51.98 18.52,50.78 18.47,49.51 18.41,48.24 18.37,46.12 18.33,43.99 18.26,42.88 18.19,41.76 18.08,40.54 17.96,39.32 17.89,38.14 17.81,36.96 17.72,34.90 17.62,32.84 17.53,31.70 17.44,30.57 17.39,29.40 17.33,28.24 17.31,27.07 17.28,25.90 17.22,23.67 17.17,21.44 17.16,19.68 17.14,17.92 17.13,16.25 17.12,14.58 17.11,12.88 17.10,11.17 17.09,9.66 17.08,8.14 17.09,7.00 17.11,5.86 17.14,4.72 17.17,3.59 17.40,2.51 17.62,1.44 18.37,2.23 19.13,3.03 17.91,2.96 16.70,2.89 15.24,2.82 13.79,2.76 12.72,2.74 11.65,2.72 10.51,2.70 9.37,2.69 7.90,2.72 6.43,2.75 4.33,2.70 2.23,2.65 1.11,2.63 0,2.60 -0.31,2.57 -0.62,2.53 -0.91,2.42 -1.21,2.31 -1.47,2.13 -1.73,1.95 -1.93,1.71 -2.14,1.48 -2.29,1.20 -2.43,0.92 -2.51,0.61 -2.58,0.31 -2.58,-0.00 -2.58,-0.31 -2.51,-0.61 -2.43,-0.92 -2.29,-1.20 -2.14,-1.48 -1.93,-1.71 -1.72,-1.95 -1.47,-2.13 -1.21,-2.31 -0.91,-2.42 -0.62,-2.53 -0.31,-2.57 0.00,-2.60 0.00,-2.60 L 0,-2.60 Z"></path>
    </g>
    <g transform="translate(292.71356964940367 138.5901100327239) rotate(0 27.619972229003906 25)">
        <text x="0" y="0" font-family="Virgil, Segoe UI Emoji" font-size="20px" fill="#000000"
            text-anchor="start" style="white-space: pre;" direction="ltr"
            dominant-baseline="text-before-edge">Other</text>
        <text x="0" y="25" font-family="Virgil, Segoe UI Emoji" font-size="20px" fill="#000000"
            text-anchor="start" style="white-space: pre;" direction="ltr"
            dominant-baseline="text-before-edge">Data</text>
    </g>
    <g stroke-linecap="round"
        transform="translate(464.70380402440367 105.60182878272391) rotate(0 63 26.5)">
        <path
            d="M13.25 0 M13.25 0 C51.57 -0.52, 87.61 -1.7, 112.75 0 M13.25 0 C49.58 1.07, 84.39 0.71, 112.75 0 M112.75 0 C120.42 -0.8, 124.14 3.28, 126 13.25 M112.75 0 C121.81 1.85, 124.47 3.32, 126 13.25 M126 13.25 C125.33 22.45, 123.82 31.1, 126 39.75 M126 13.25 C126.14 19.61, 127 23.84, 126 39.75 M126 39.75 C126.44 46.79, 120.78 51.05, 112.75 53 M126 39.75 C125.44 50.48, 119.51 53.63, 112.75 53 M112.75 53 C77.67 53.5, 42.93 52.74, 13.25 53 M112.75 53 C84.2 51.38, 57.05 53, 13.25 53 M13.25 53 C3.01 52.83, -0.72 47.26, 0 39.75 M13.25 53 C3.41 53.19, 0.6 49, 0 39.75 M0 39.75 C-0.93 29.78, 0.84 24.41, 0 13.25 M0 39.75 C-0.73 31.08, 0.04 23.37, 0 13.25 M0 13.25 C0.53 3.05, 4.86 0.8, 13.25 0 M0 13.25 C0.85 3.17, 6.51 0.15, 13.25 0"
            stroke="#000000" stroke-width="1" fill="none"></path>
    </g>
    <g transform="translate(515.6438140952044 119.60182878272391) rotate(0 12.059989929199219 12.5)">
        <text x="12.059989929199219" y="0" font-family="Virgil, Segoe UI Emoji" font-size="20px"
            fill="#000000" text-anchor="middle" style="white-space: pre;" direction="ltr"
            dominant-baseline="text-before-edge">IP</text>
    </g>
    <g stroke-linecap="round"
        transform="translate(465.42060089940367 165.9729225327239) rotate(0 63 26.5)">
        <path
            d="M13.25 0 M13.25 0 C40.59 -0.27, 71.79 0.79, 112.75 0 M13.25 0 C48.4 0.49, 84.92 0.16, 112.75 0 M112.75 0 C121.6 -1.47, 125.17 4.83, 126 13.25 M112.75 0 C120.44 0.07, 126.24 2.15, 126 13.25 M126 13.25 C126.57 22.26, 126.61 29.43, 126 39.75 M126 13.25 C126.57 19.12, 125.77 23.69, 126 39.75 M126 39.75 C126.81 49.79, 120.34 54.38, 112.75 53 M126 39.75 C127.59 48.74, 120.28 54.8, 112.75 53 M112.75 53 C75.84 51.05, 39.15 51.65, 13.25 53 M112.75 53 C83.55 53.08, 55.59 52.01, 13.25 53 M13.25 53 C3.92 52.39, -1.72 50.14, 0 39.75 M13.25 53 C2.84 54.38, -1.48 46.95, 0 39.75 M0 39.75 C-0.53 32.47, 1.15 29.48, 0 13.25 M0 39.75 C0.08 29.83, -0.03 21.17, 0 13.25 M0 13.25 C-0.65 2.85, 3.62 -1.59, 13.25 0 M0 13.25 C-0.85 5.65, 2.23 1.55, 13.25 0"
            stroke="#000000" stroke-width="1" fill="none"></path>
    </g>
    <g transform="translate(501.82062531346617 179.9729225327239) rotate(0 26.5999755859375 12.5)">
        <text x="26.5999755859375" y="0" font-family="Virgil, Segoe UI Emoji" font-size="20px"
            fill="#000000" text-anchor="middle" style="white-space: pre;" direction="ltr"
            dominant-baseline="text-before-edge">Chunk</text>
    </g>
    <g stroke-linecap="round"
        transform="translate(466.03388214940367 222.5940162827239) rotate(0 63 26.5)">
        <path
            d="M13.25 0 M13.25 0 C41.08 -2.12, 67.57 -1.3, 112.75 0 M13.25 0 C53.04 0.55, 92.42 0.44, 112.75 0 M112.75 0 C121.38 -0.89, 126.06 2.66, 126 13.25 M112.75 0 C120.21 -0.08, 126.62 2.65, 126 13.25 M126 13.25 C126.97 20.31, 126.89 30.3, 126 39.75 M126 13.25 C126.18 22.64, 125.47 32.34, 126 39.75 M126 39.75 C126.02 48.5, 119.69 51.6, 112.75 53 M126 39.75 C125.73 47.11, 121.16 52.44, 112.75 53 M112.75 53 C91.5 50.87, 68.04 53.13, 13.25 53 M112.75 53 C74.61 53.46, 34.44 53.96, 13.25 53 M13.25 53 C3.71 52.41, -0.23 48.45, 0 39.75 M13.25 53 C5.21 55.17, 1.48 46.5, 0 39.75 M0 39.75 C1.28 32.45, -0.19 23.3, 0 13.25 M0 39.75 C0.22 31.08, -0.13 23.01, 0 13.25 M0 13.25 C-1.12 3.06, 4.55 1.6, 13.25 0 M0 13.25 C-0.76 4.01, 5.27 1.81, 13.25 0"
            stroke="#000000" stroke-width="1" fill="none"></path>
    </g>
    <g transform="translate(475.90392304295835 236.5940162827239) rotate(0 53.12995910644531 12.5)">
        <text x="53.12995910644531" y="0" font-family="Virgil, Segoe UI Emoji" font-size="20px"
            fill="#000000" text-anchor="middle" style="white-space: pre;" direction="ltr"
            dominant-baseline="text-before-edge">StackBase</text>
    </g>
    <g stroke-linecap="round"
        transform="translate(447.82685089940367 97.43386003272391) rotate(0 81.48828125 94.6484375)">
        <path
            d="M32 0 M32 0 C56.39 0, 79.51 -1.12, 130.98 0 M32 0 C59.18 -1.77, 85.19 -1.74, 130.98 0 M130.98 0 C153.42 -1.57, 162.67 9.83, 162.98 32 M130.98 0 C153.89 0.11, 164.13 11.79, 162.98 32 M162.98 32 C162.23 77.02, 164.97 125.7, 162.98 157.3 M162.98 32 C162.13 69.04, 163.1 107.6, 162.98 157.3 M162.98 157.3 C162.58 179.91, 154.3 189.38, 130.98 189.3 M162.98 157.3 C165.1 179.35, 151.47 187.56, 130.98 189.3 M130.98 189.3 C92.69 187.58, 55.98 190.9, 32 189.3 M130.98 189.3 C98.52 189.73, 65.55 188.25, 32 189.3 M32 189.3 C11.51 188.5, 1.52 180.33, 0 157.3 M32 189.3 C10.9 189.66, 0.81 177.53, 0 157.3 M0 157.3 C1.64 121.88, 1.65 88.03, 0 32 M0 157.3 C-1.25 124.85, -0.29 93.51, 0 32 M0 32 C1.9 12.56, 9.99 0.04, 32 0 M0 32 C-1.98 12.7, 9.19 2.28, 32 0"
            stroke="#000000" stroke-width="1" fill="none"></path>
    </g>
    <g
        transform="translate(483.73310089940367 296.60182878272394) rotate(0 51.879966735839844 12.5)">
        <text x="0" y="0" font-family="Virgil, Segoe UI Emoji" font-size="20px" fill="#000000"
            text-anchor="start" style="white-space: pre;" direction="ltr"
            dominant-baseline="text-before-edge">Call Frame</text>
    </g>
    <g stroke-linecap="round">
        <g
            transform="translate(453.83770718829874 238.79131897619416) rotate(0 -97.78860047428032 -50.76554493627262)">
            <path
                d="M0.57 0.95 C-32.17 -15.84, -162.83 -83.49, -195.59 -100.59 M-0.59 0.4 C-33.5 -16.77, -163.48 -85.64, -196.15 -102.48"
                stroke="#000000" stroke-width="1" fill="none"></path>
        </g>
        <g
            transform="translate(453.83770718829874 238.79131897619416) rotate(0 -97.78860047428032 -50.76554493627262)">
            <path
                d="M-164.84 -97.25 C-176.75 -99.3, -189.54 -99.99, -195.5 -102.08 M-165.78 -98.14 C-177.49 -100.09, -188.89 -101.66, -197.04 -102.95"
                stroke="#000000" stroke-width="1" fill="none"></path>
        </g>
        <g
            transform="translate(453.83770718829874 238.79131897619416) rotate(0 -97.78860047428032 -50.76554493627262)">
            <path
                d="M-174.35 -79.07 C-182.75 -87.94, -191.99 -95.4, -195.5 -102.08 M-175.3 -79.96 C-183.32 -88.98, -190.97 -97.71, -197.04 -102.95"
                stroke="#000000" stroke-width="1" fill="none"></path>
        </g>
    </g>
    <mask></mask>
    <g stroke-linecap="round"
        transform="translate(471.64130402440367 341.55886003272394) rotate(0 63 26.5)">
        <path
            d="M13.25 0 M13.25 0 C54.87 -0.44, 93.36 0.63, 112.75 0 M13.25 0 C50.24 1.27, 86.26 1.12, 112.75 0 M112.75 0 C123.22 -1.07, 124.29 4.69, 126 13.25 M112.75 0 C123.85 -0.69, 124.26 3.11, 126 13.25 M126 13.25 C124.34 19.06, 126.32 26.14, 126 39.75 M126 13.25 C125.01 20.02, 125.53 25.53, 126 39.75 M126 39.75 C124.39 48.34, 121.7 52.45, 112.75 53 M126 39.75 C127.7 49.52, 123.72 51.76, 112.75 53 M112.75 53 C87.66 51.66, 62.79 53.32, 13.25 53 M112.75 53 C90.98 52.29, 68.22 52.54, 13.25 53 M13.25 53 C3.05 54.56, -0.25 47.49, 0 39.75 M13.25 53 C5.24 53.28, -1.22 48.25, 0 39.75 M0 39.75 C2.21 31.1, 0.81 18.14, 0 13.25 M0 39.75 C-0.82 31.33, 0.76 21.67, 0 13.25 M0 13.25 C-1.38 5.08, 3.65 0.54, 13.25 0 M0 13.25 C-1.92 3.63, 6.46 -1.4, 13.25 0"
            stroke="#000000" stroke-width="1" fill="none"></path>
    </g>
    <g transform="translate(522.5813140952044 355.55886003272394) rotate(0 12.059989929199219 12.5)">
        <text x="12.059989929199219" y="0" font-family="Virgil, Segoe UI Emoji" font-size="20px"
            fill="#000000" text-anchor="middle" style="white-space: pre;" direction="ltr"
            dominant-baseline="text-before-edge">IP</text>
    </g>
    <g stroke-linecap="round"
        transform="translate(472.35810089940367 401.92995378272394) rotate(0 63 26.5)">
        <path
            d="M13.25 0 M13.25 0 C36.58 0.48, 59.72 0.79, 112.75 0 M13.25 0 C37.63 -0.15, 61.55 -1.19, 112.75 0 M112.75 0 C119.87 0.28, 127.97 3.82, 126 13.25 M112.75 0 C119.84 -1.31, 124.42 2.7, 126 13.25 M126 13.25 C126.32 19.38, 124.33 23.45, 126 39.75 M126 13.25 C125.41 21.67, 124.96 29.4, 126 39.75 M126 39.75 C126.11 48.03, 123.06 53.81, 112.75 53 M126 39.75 C128.14 47.34, 120.38 55.09, 112.75 53 M112.75 53 C88.6 53.6, 64.22 50.67, 13.25 53 M112.75 53 C85.48 52.38, 57.88 53.34, 13.25 53 M13.25 53 C4.17 51.91, 0.72 48.83, 0 39.75 M13.25 53 C3.2 52.66, 1.66 46.4, 0 39.75 M0 39.75 C0.3 28.81, 0.79 22.08, 0 13.25 M0 39.75 C1.02 30.45, -0.49 20.28, 0 13.25 M0 13.25 C-0.77 4.96, 2.75 -0.68, 13.25 0 M0 13.25 C2.04 3.02, 2.55 -1.07, 13.25 0"
            stroke="#000000" stroke-width="1" fill="none"></path>
    </g>
    <g transform="translate(508.75812531346617 415.92995378272394) rotate(0 26.5999755859375 12.5)">
        <text x="26.5999755859375" y="0" font-family="Virgil, Segoe UI Emoji" font-size="20px"
            fill="#000000" text-anchor="middle" style="white-space: pre;" direction="ltr"
            dominant-baseline="text-before-edge">Chunk</text>
    </g>
    <g stroke-linecap="round"
        transform="translate(472.97138214940367 458.55104753272394) rotate(0 63 26.5)">
        <path
            d="M13.25 0 M13.25 0 C38.59 0.26, 60.16 1.66, 112.75 0 M13.25 0 C50.52 -1.04, 85.3 -0.37, 112.75 0 M112.75 0 C123.55 -0.6, 124.48 3.28, 126 13.25 M112.75 0 C120.01 -1.71, 123.88 2.73, 126 13.25 M126 13.25 C124.59 19.95, 126.21 26.52, 126 39.75 M126 13.25 C125.1 23.12, 125.96 32.97, 126 39.75 M126 39.75 C127.48 49.4, 123.44 51.92, 112.75 53 M126 39.75 C124.8 50.67, 120.11 52.5, 112.75 53 M112.75 53 C84.84 51.49, 59.47 54.29, 13.25 53 M112.75 53 C86.58 53.6, 61.66 52.28, 13.25 53 M13.25 53 C5.13 53.24, -1.06 48.29, 0 39.75 M13.25 53 C6.08 50.82, 0.97 50.83, 0 39.75 M0 39.75 C0.97 30.65, 1.4 19.09, 0 13.25 M0 39.75 C-0.91 29.69, -0.6 19.24, 0 13.25 M0 13.25 C-1.67 3.74, 6.19 -1.21, 13.25 0 M0 13.25 C-1.86 3.34, 6.51 -0.36, 13.25 0"
            stroke="#000000" stroke-width="1" fill="none"></path>
    </g>
    <g transform="translate(482.84142304295835 472.55104753272394) rotate(0 53.12995910644531 12.5)">
        <text x="53.12995910644531" y="0" font-family="Virgil, Segoe UI Emoji" font-size="20px"
            fill="#000000" text-anchor="middle" style="white-space: pre;" direction="ltr"
            dominant-baseline="text-before-edge">StackBase</text>
    </g>
    <g stroke-linecap="round"
        transform="translate(454.76435089940367 333.39089128272394) rotate(0 81.48828125 94.6484375)">
        <path
            d="M7.86 8.16 C7.86 8.16, 7.86 8.16, 7.86 8.16 M7.86 8.16 C7.86 8.16, 7.86 8.16, 7.86 8.16 M3.66 19.09 C5.5 13.62, 8.76 11.41, 18.1 2.48 M3.66 19.09 C7.91 13.85, 12.14 9.14, 18.1 2.48 M2.75 26.24 C8.15 19.95, 13.57 14.73, 24.4 1.33 M2.75 26.24 C9.37 18.78, 16.63 9.17, 24.4 1.33 M2.48 32.64 C8.52 21.92, 16.99 16.12, 30.7 0.18 M2.48 32.64 C9.08 25.16, 16.87 15.52, 30.7 0.18 M2.88 38.28 C13.12 27.73, 22.09 14.96, 34.37 2.05 M2.88 38.28 C14.25 24.3, 27.94 10.11, 34.37 2.05 M2.62 44.68 C11.64 33.55, 19.33 24.71, 39.36 2.41 M2.62 44.68 C15.87 30.38, 26.19 16.7, 39.36 2.41 M2.36 51.07 C17.75 34.14, 37.24 12.83, 45 2.02 M2.36 51.07 C16.47 35.78, 28.31 21.08, 45 2.02 M2.75 56.72 C22.69 34.59, 41.44 11.69, 49.99 2.38 M2.75 56.72 C17.35 41.07, 30.98 23.01, 49.99 2.38 M2.49 63.11 C22.28 42.45, 39.62 20.21, 55.63 1.98 M2.49 63.11 C24.43 38.44, 45.82 13.78, 55.63 1.98 M2.23 69.51 C24.31 44.64, 46.66 18.77, 60.62 2.34 M2.23 69.51 C15.87 54.59, 28.52 38.95, 60.62 2.34 M2.62 75.16 C26.28 49.57, 45.9 24.72, 66.26 1.95 M2.62 75.16 C26.94 46.84, 52.05 17.55, 66.26 1.95 M2.36 81.55 C25.05 51.64, 49.13 23.5, 71.25 2.31 M2.36 81.55 C22.11 58.19, 43.43 33.8, 71.25 2.31 M2.1 87.95 C21.54 66.47, 38.41 47.72, 76.89 1.91 M2.1 87.95 C29.24 58.52, 55.4 26.35, 76.89 1.91 M2.49 93.59 C20.23 71.57, 40.24 47.2, 81.88 2.27 M2.49 93.59 C20.68 74.12, 37.45 55.6, 81.88 2.27 M2.23 99.99 C33.92 61.32, 64.98 24.39, 86.86 2.63 M2.23 99.99 C33.14 63.65, 65.93 27.14, 86.86 2.63 M2.63 105.64 C32.9 68.49, 63.67 33.89, 92.51 2.24 M2.63 105.64 C23.12 81.75, 42.87 60.08, 92.51 2.24 M2.37 112.03 C28.42 83.22, 55.4 52.74, 97.49 2.6 M2.37 112.03 C27.91 84.53, 51.32 56.11, 97.49 2.6 M2.1 118.43 C25.97 88.52, 50.68 62.65, 103.14 2.21 M2.1 118.43 C28.67 87.7, 55.39 55.83, 103.14 2.21 M2.5 124.07 C25.85 99.28, 47.66 71.5, 108.12 2.57 M2.5 124.07 C26.89 96.87, 50.51 70.26, 108.12 2.57 M2.24 130.47 C41.84 83.21, 84.76 38.38, 113.77 2.17 M2.24 130.47 C30.17 100.52, 57.49 69.1, 113.77 2.17 M1.98 136.87 C44.35 88.93, 85.45 40.04, 118.76 2.53 M1.98 136.87 C30.13 104.84, 58.64 70.87, 118.76 2.53 M2.37 142.51 C49.95 89.76, 93.9 32.36, 124.4 2.14 M2.37 142.51 C43.03 94.9, 83.55 48.54, 124.4 2.14 M2.11 148.91 C49.49 92.54, 97.33 32.94, 129.39 2.5 M2.11 148.91 C38.43 105.89, 75.68 64.35, 129.39 2.5 M-0.12 157.57 C30.77 119.47, 64.53 83.99, 134.37 2.86 M-0.12 157.57 C39.89 112.71, 80.03 66.36, 134.37 2.86 M0.93 162.46 C35.71 124.41, 72.1 83.87, 140.02 2.46 M0.93 162.46 C37.2 120.57, 73.01 79.04, 140.02 2.46 M1.33 168.1 C46.37 114.75, 92.4 63.38, 144.35 3.58 M1.33 168.1 C51.24 111.67, 100.01 53.8, 144.35 3.58 M3.03 172.24 C37.72 133.24, 72.51 89.21, 148.68 4.69 M3.03 172.24 C42.77 125.36, 83.2 78.76, 148.68 4.69 M4.74 176.37 C40.47 133.38, 78.37 90.82, 152.35 6.56 M4.74 176.37 C48.11 127.84, 89.82 79.13, 152.35 6.56 M7.76 179 C56.18 125.44, 100.91 72.51, 155.37 9.19 M7.76 179 C65.62 112.77, 124.08 45.46, 155.37 9.19 M10.12 182.37 C57.96 126.68, 108.4 69.97, 158.39 11.81 M10.12 182.37 C68.07 117.56, 125.77 50.42, 158.39 11.81 M13.14 185 C66.17 121.63, 122.03 60.1, 161.41 14.43 M13.14 185 C57.33 136.73, 98.49 88.86, 161.41 14.43 M16.81 186.87 C54.57 139.83, 96.72 94.01, 162.46 19.32 M16.81 186.87 C61.67 137.54, 105.14 85.35, 162.46 19.32 M19.83 189.49 C67.36 133.65, 117.45 76.62, 163.51 24.21 M19.83 189.49 C68.46 132.48, 117.67 76.62, 163.51 24.21 M24.82 189.85 C66.15 144.03, 108.52 93.36, 163.9 29.85 M24.82 189.85 C72.08 134.22, 119.6 79.93, 163.9 29.85 M29.81 190.21 C79.48 132.9, 127.91 77.14, 165.61 33.99 M29.81 190.21 C80.98 131.8, 133.29 71.18, 165.61 33.99 M34.14 191.33 C63.79 157.17, 92.16 123.04, 165.35 40.39 M34.14 191.33 C61.93 160.01, 89.47 129.94, 165.35 40.39 M39.78 190.93 C86.97 140.16, 130.8 86.84, 165.74 46.03 M39.78 190.93 C85.21 140.68, 128.16 90.41, 165.74 46.03 M44.77 191.29 C88.63 141.17, 133.14 91.44, 165.48 52.43 M44.77 191.29 C75.72 156.05, 105.64 120.64, 165.48 52.43 M50.41 190.9 C79.14 156.43, 109.69 122.28, 165.22 58.82 M50.41 190.9 C74.7 165.18, 96.94 137.65, 165.22 58.82 M55.4 191.26 C81.85 158.72, 106.89 128.26, 165.62 64.47 M55.4 191.26 C80.34 161.53, 105.6 131.07, 165.62 64.47 M61.04 190.86 C82.08 166.65, 104.23 144.04, 165.35 70.86 M61.04 190.86 C87.46 162.51, 112.27 134.13, 165.35 70.86 M66.03 191.22 C94.1 159.53, 119.85 127.96, 165.75 76.51 M66.03 191.22 C100.15 150.03, 133.41 111.64, 165.75 76.51 M71.02 191.58 C100.13 158.58, 129.5 124.07, 165.49 82.91 M71.02 191.58 C106.4 149.92, 140.97 111.17, 165.49 82.91 M76.66 191.19 C102.76 163.12, 127.14 131.74, 165.23 89.3 M76.66 191.19 C111.24 151, 145 111.43, 165.23 89.3 M81.65 191.55 C109.06 160.01, 139.06 128.48, 165.62 94.95 M81.65 191.55 C100.24 169.39, 121.22 148.24, 165.62 94.95 M87.29 191.15 C116.36 157.97, 147.68 120.3, 165.36 101.34 M87.29 191.15 C104.03 171, 121.73 153.08, 165.36 101.34 M92.28 191.51 C119.94 159.92, 150.98 125.82, 165.75 106.99 M92.28 191.51 C113.09 168.58, 132.38 145.26, 165.75 106.99 M97.92 191.12 C121.06 167.2, 142.33 141.61, 165.49 113.39 M97.92 191.12 C116.46 170.2, 133.91 150.93, 165.49 113.39 M102.91 191.48 C118.06 175.57, 135.61 154.97, 165.23 119.78 M102.91 191.48 C121.39 169.94, 139.39 149.01, 165.23 119.78 M108.55 191.09 C128.4 169.51, 146.69 147.8, 165.63 125.43 M108.55 191.09 C122.98 176.24, 136.39 159.66, 165.63 125.43 M113.54 191.45 C124.66 179.93, 135.63 164.21, 165.36 131.82 M113.54 191.45 C128.01 175.21, 142.58 157.41, 165.36 131.82 M119.18 191.05 C139.89 169.79, 156.51 149.82, 165.76 137.47 M119.18 191.05 C130.87 178.75, 140.04 166.26, 165.76 137.47 M124.17 191.41 C135.43 179.29, 144.71 166.89, 165.5 143.86 M124.17 191.41 C140.36 173.32, 156.57 155.17, 165.5 143.86 M131.12 189.51 C140.2 178.75, 151.19 165.84, 165.24 150.26 M131.12 189.51 C142.86 175.35, 157.27 161.84, 165.24 150.26 M137.42 188.36 C147.35 179.61, 153.48 168.53, 163.66 158.17 M137.42 188.36 C146.59 178.6, 155.83 168.04, 163.66 158.17 M143.06 187.96 C147.92 181.21, 156.13 172.01, 162.74 165.32 M143.06 187.96 C151.77 179.7, 159.24 169.45, 162.74 165.32 M150.67 185.3 C153.95 182.21, 157.42 176.87, 161.83 172.47 M150.67 185.3 C153.61 182.72, 156.13 179.5, 161.83 172.47"
            stroke="#40c057" stroke-width="0.5" fill="none"></path>
        <path
            d="M32 0 M32 0 C65.9 0.79, 96.11 -0.09, 130.98 0 M32 0 C62.14 -0.26, 93.16 0.63, 130.98 0 M130.98 0 C151.07 1.75, 161.29 9.7, 162.98 32 M130.98 0 C152.56 1.18, 162.39 11.97, 162.98 32 M162.98 32 C162.87 77.57, 163.12 121.2, 162.98 157.3 M162.98 32 C162.65 78.67, 162.3 123.52, 162.98 157.3 M162.98 157.3 C163.2 177.76, 153.24 190.16, 130.98 189.3 M162.98 157.3 C160.86 178.98, 150.17 189.02, 130.98 189.3 M130.98 189.3 C109.1 188.27, 89.31 190.44, 32 189.3 M130.98 189.3 C95.81 188.1, 62.12 188.71, 32 189.3 M32 189.3 C11.31 188.97, -0.5 176.66, 0 157.3 M32 189.3 C8.99 191.2, -0.41 178.96, 0 157.3 M0 157.3 C-0.17 126.04, 1.02 90.75, 0 32 M0 157.3 C-1.85 130.07, -0.63 103.37, 0 32 M0 32 C1 10.83, 12.09 -1.74, 32 0 M0 32 C2.29 12.86, 9.14 0.99, 32 0"
            stroke="#000000" stroke-width="1" fill="none"></path>
    </g>
    <g stroke-linecap="round">
        <g
            transform="translate(466.48700714940367 485.4501292099337) rotate(0 -104.30379392774876 -101.25686251142847)">
            <path
                d="M0.66 0.98 C-34.11 -32.8, -173.47 -169.47, -208.16 -203.49 M-0.46 0.44 C-35.44 -33.1, -174.66 -168.48, -209.26 -202.21"
                stroke="#000000" stroke-width="1" fill="none"></path>
        </g>
        <g
            transform="translate(466.48700714940367 485.4501292099337) rotate(0 -104.30379392774876 -101.25686251142847)">
            <path
                d="M-180.28 -190.39 C-191.79 -193.23, -200.38 -196.45, -209.58 -202.61 M-181.92 -189.59 C-188.77 -192.06, -194.41 -195.87, -210.22 -202.21"
                stroke="#000000" stroke-width="1" fill="none"></path>
        </g>
        <g
            transform="translate(466.48700714940367 485.4501292099337) rotate(0 -104.30379392774876 -101.25686251142847)">
            <path
                d="M-194.59 -175.69 C-201.21 -183.52, -205.02 -191.65, -209.58 -202.61 M-196.23 -174.88 C-199.83 -180.51, -202.34 -187.55, -210.22 -202.21"
                stroke="#000000" stroke-width="1" fill="none"></path>
        </g>
    </g>
    <mask></mask>
    <g transform="translate(847.1147751221273 10) rotate(0 52.78996276855469 12.5)">
        <text x="0" y="0" font-family="Virgil, Segoe UI Emoji" font-size="20px" fill="#000000"
            text-anchor="start" style="white-space: pre;" direction="ltr"
            dominant-baseline="text-before-edge">Main Chunk</text>
    </g>
    <g stroke-linecap="round"
        transform="translate(768.2255209498293 415.46928995433757) rotate(269.50102884999615 46 20.5)">
        <path
            d="M10.25 0 M10.25 0 C36.86 0.04, 69.03 -0.5, 81.75 0 M10.25 0 C37.04 -0.7, 66.29 -1.4, 81.75 0 M81.75 0 C87.16 0.29, 92.61 5.34, 92 10.25 M81.75 0 C89.56 -2.02, 91.77 2.62, 92 10.25 M92 10.25 C92.2 18.64, 90.27 23.13, 92 30.75 M92 10.25 C92.95 15.29, 92.72 21.66, 92 30.75 M92 30.75 C93.19 39.16, 90.25 42.84, 81.75 41 M92 30.75 C90.06 39.1, 90.7 39.01, 81.75 41 M81.75 41 C62.31 42.78, 44.89 39.69, 10.25 41 M81.75 41 C54.51 41.11, 28.46 40.45, 10.25 41 M10.25 41 C1.66 41.1, -1.92 38.37, 0 30.75 M10.25 41 C2.3 42.94, -1.63 39.56, 0 30.75 M0 30.75 C-1.89 22.46, 1.68 13.44, 0 10.25 M0 30.75 C0.12 23.97, 0.88 18.1, 0 10.25 M0 10.25 C0.68 1.85, 1.96 0.74, 10.25 0 M0 10.25 C1.88 2.92, 4.29 1.05, 10.25 0"
            stroke="#000000" stroke-width="1" fill="none"></path>
    </g>
    <g
        transform="translate(786.4955481104738 423.46928995433757) rotate(269.50102884999615 27.72997283935547 12.5)">
        <text x="27.72997283935547" y="0" font-family="Virgil, Segoe UI Emoji" font-size="20px"
            fill="#000000" text-anchor="middle" style="white-space: pre;" direction="ltr"
            dominant-baseline="text-before-edge">Const</text>
    </g>
    <g stroke-linecap="round"
        transform="translate(850.3791349507268 438.4418605038853) rotate(0 17.5 20)">
        <path
            d="M8.75 0 M8.75 0 C17.28 0.11, 24.2 0.92, 26.25 0 M8.75 0 C15.91 -0.74, 21.14 0.16, 26.25 0 M26.25 0 C32.7 1.92, 35.85 1.16, 35 8.75 M26.25 0 C31.86 -0.8, 35.42 2.96, 35 8.75 M35 8.75 C33.29 16.24, 34.46 25.62, 35 31.25 M35 8.75 C35.73 17.48, 35.77 26.5, 35 31.25 M35 31.25 C36.67 38.93, 30.39 41.32, 26.25 40 M35 31.25 C37.12 35.09, 30.96 41.31, 26.25 40 M26.25 40 C20.42 39.11, 17.46 40.11, 8.75 40 M26.25 40 C22.12 40.26, 18.37 40.18, 8.75 40 M8.75 40 C1 40.79, -0.97 38.77, 0 31.25 M8.75 40 C1.28 41.98, 2.22 38.56, 0 31.25 M0 31.25 C2.01 24.49, 0.74 18.94, 0 8.75 M0 31.25 C0.79 25.01, 0.34 16.45, 0 8.75 M0 8.75 C-1.46 3.66, 4.55 -0.43, 8.75 0 M0 8.75 C0.88 3.97, 3.09 1.82, 8.75 0"
            stroke="#000000" stroke-width="1" fill="none"></path>
    </g>
    <g transform="translate(862.0197599507268 446.4418605038853) rotate(0 5.859375 12)">
        <text x="5.859375" y="0" font-family="Cascadia, Segoe UI Emoji" font-size="20px"
            fill="#000000" text-anchor="middle" style="white-space: pre;" direction="ltr"
            dominant-baseline="text-before-edge">O</text>
    </g>
    <g stroke-linecap="round"
        transform="translate(850.7511716054231 388.4024324642884) rotate(0 17.5 20)">
        <path
            d="M8.75 0 M8.75 0 C16.16 0.97, 21.8 -1.51, 26.25 0 M8.75 0 C13.05 0.28, 18.87 1, 26.25 0 M26.25 0 C32.93 -1.76, 34.8 2.22, 35 8.75 M26.25 0 C32.5 0.05, 35.92 3.14, 35 8.75 M35 8.75 C34.25 19.16, 36.34 28.03, 35 31.25 M35 8.75 C35.72 15.08, 35.96 20.77, 35 31.25 M35 31.25 C33.31 38.4, 33.92 38.27, 26.25 40 M35 31.25 C33.87 38.39, 31.74 38.29, 26.25 40 M26.25 40 C20.54 39.84, 10.75 38.28, 8.75 40 M26.25 40 C18.82 40.07, 12.09 40.37, 8.75 40 M8.75 40 C1.95 41.69, -1.42 38.8, 0 31.25 M8.75 40 C5.14 41.48, -1.06 35.06, 0 31.25 M0 31.25 C0.34 23.79, 0.03 18.16, 0 8.75 M0 31.25 C0.16 23.88, -0.91 18.44, 0 8.75 M0 8.75 C1.63 2.49, 3.68 0.91, 8.75 0 M0 8.75 C0.17 4.74, 3.46 -1, 8.75 0"
            stroke="#000000" stroke-width="1" fill="none"></path>
    </g>
    <g transform="translate(862.3917966054231 396.4024324642884) rotate(0 5.859375 12)">
        <text x="5.859375" y="0" font-family="Cascadia, Segoe UI Emoji" font-size="20px"
            fill="#000000" text-anchor="middle" style="white-space: pre;" direction="ltr"
            dominant-baseline="text-before-edge">1</text>
    </g>
    <g stroke-linecap="round"
        transform="translate(850.9766599932353 389.2615894504851) rotate(0 87 20)">
        <path
            d="M10 0 M10 0 C59.17 -2.58, 105.09 0.61, 164 0 M10 0 C42.88 0.74, 75.58 -1.1, 164 0 M164 0 C170.47 -0.7, 174.36 3.37, 174 10 M164 0 C171.59 0.22, 176.15 1.34, 174 10 M174 10 C175.48 17.41, 172.87 22.78, 174 30 M174 10 C174.96 17.42, 173.27 23.67, 174 30 M174 30 C175.84 34.93, 169.69 41.14, 164 40 M174 30 C173.66 34.96, 172.84 38.9, 164 40 M164 40 C125.11 38.11, 91.7 38.64, 10 40 M164 40 C114.7 40.47, 66.83 40.92, 10 40 M10 40 C1.91 41.72, 1.93 37.95, 0 30 M10 40 C2.27 37.98, -0.19 38.75, 0 30 M0 30 C0.18 25.1, -0.2 21.68, 0 10 M0 30 C-0.8 22.84, 0.75 14.72, 0 10 M0 10 C0.76 4.25, 3.48 1.58, 10 0 M0 10 C0.55 2.34, 3.28 -0.21, 10 0"
            stroke="#000000" stroke-width="1" fill="none"></path>
    </g>
    <g transform="translate(907.1666853228252 396.7615894504851) rotate(0 30.809974670410156 12.5)">
        <text x="30.809974670410156" y="0" font-family="Virgil, Segoe UI Emoji" font-size="20px"
            fill="#000000" text-anchor="middle" style="white-space: pre;" direction="ltr"
            dominant-baseline="text-before-edge">"world"</text>
    </g>
    <g stroke-linecap="round"
        transform="translate(850.7269547618497 437.52715564765765) rotate(0 87 20)">
        <path
            d="M10 0 M10 0 C64.53 2.8, 118.03 -0.11, 164 0 M10 0 C58.87 -2.36, 106.79 -1.83, 164 0 M164 0 C171.03 0.04, 174.8 3.53, 174 10 M164 0 C172.81 -1.99, 173.81 2.69, 174 10 M174 10 C173.08 18.68, 174.66 26.31, 174 30 M174 10 C173.32 18.23, 175.09 24.28, 174 30 M174 30 C173.02 37.8, 170.37 38.51, 164 40 M174 30 C176.17 35.56, 169.29 41.56, 164 40 M164 40 C119.87 37.26, 72.79 36.82, 10 40 M164 40 C116.57 41.45, 69.39 41.46, 10 40 M10 40 C5.27 41.28, -0.92 34.91, 0 30 M10 40 C3.15 42.08, -1.21 37.29, 0 30 M0 30 C-0.17 26.47, 1.51 20.46, 0 10 M0 30 C0.96 25.35, 0.53 21.58, 0 10 M0 10 C0.15 4.92, 3.81 -0.87, 10 0 M0 10 C-0.06 3.12, 4.92 0.59, 10 0"
            stroke="#000000" stroke-width="1" fill="none"></path>
    </g>
    <g transform="translate(909.9569810069669 445.02715564765765) rotate(0 27.769973754882812 12.5)">
        <text x="27.769973754882812" y="0" font-family="Virgil, Segoe UI Emoji" font-size="20px"
            fill="#000000" text-anchor="middle" style="white-space: pre;" direction="ltr"
            dominant-baseline="text-before-edge">"hello"</text>
    </g>
    <g stroke-linecap="round"
        transform="translate(776.8495645671322 513.9380381324149) rotate(269.23701463560457 39 21)">
        <path
            d="M10.5 0 M10.5 0 C20.97 -1.84, 35.27 0.19, 67.5 0 M10.5 0 C32.98 0.15, 55.85 0.52, 67.5 0 M67.5 0 C75.3 0.19, 79.87 1.77, 78 10.5 M67.5 0 C74.31 -0.64, 79.79 5.27, 78 10.5 M78 10.5 C78.39 19.65, 79.46 28.08, 78 31.5 M78 10.5 C78.74 17.87, 77.33 27.54, 78 31.5 M78 31.5 C77.7 37.01, 76.39 41.04, 67.5 42 M78 31.5 C76.62 40.06, 74.43 39.77, 67.5 42 M67.5 42 C55.94 39.87, 43.93 39.71, 10.5 42 M67.5 42 C47.45 43.34, 29.79 43.12, 10.5 42 M10.5 42 C2.58 40.24, -0.16 40.31, 0 31.5 M10.5 42 C2.29 42.62, -1.02 38.76, 0 31.5 M0 31.5 C1.55 25.83, -1.55 17.34, 0 10.5 M0 31.5 C0.21 24.88, -0.1 18.13, 0 10.5 M0 10.5 C0.47 2.63, 3.45 -0.18, 10.5 0 M0 10.5 C1.59 4.09, 4.91 0.76, 10.5 0"
            stroke="#000000" stroke-width="1" fill="none"></path>
    </g>
    <g
        transform="translate(798.2295847087338 522.4380381324149) rotate(269.23701463560457 17.619979858398438 12.5)">
        <text x="17.619979858398438" y="0" font-family="Virgil, Segoe UI Emoji" font-size="20px"
            fill="#000000" text-anchor="middle" style="white-space: pre;" direction="ltr"
            dominant-baseline="text-before-edge">Ops</text>
    </g>
    <g stroke-linecap="round"
        transform="translate(855.9241067268816 495.9265652563655) rotate(0 57.5 17.5)">
        <path
            d="M8.75 0 M8.75 0 C45.52 1.31, 83.64 1.54, 106.25 0 M8.75 0 C29.62 0.36, 50.53 0.44, 106.25 0 M106.25 0 C113.95 -1.73, 114.83 2.36, 115 8.75 M106.25 0 C113.88 1.77, 116.81 1.69, 115 8.75 M115 8.75 C116.42 16.44, 116.66 19.72, 115 26.25 M115 8.75 C114.73 15.65, 115.03 20.91, 115 26.25 M115 26.25 C116.89 31.12, 110.88 36.36, 106.25 35 M115 26.25 C114.93 29.86, 109.96 36.85, 106.25 35 M106.25 35 C83.52 32.23, 61.38 33.18, 8.75 35 M106.25 35 C69.73 36.48, 30.82 34.96, 8.75 35 M8.75 35 C2.76 36.81, -1.05 32.63, 0 26.25 M8.75 35 C1.9 35.26, 0.06 31.92, 0 26.25 M0 26.25 C-1.5 18.34, 0.52 14.41, 0 8.75 M0 26.25 C0 22.07, 0.14 16.12, 0 8.75 M0 8.75 C-0.05 2.73, 4.3 0.51, 8.75 0 M0 8.75 C1.41 3.68, 3.68 0.24, 8.75 0"
            stroke="#000000" stroke-width="1" fill="none"></path>
    </g>
    <g transform="translate(879.1641351082293 500.9265652563655) rotate(0 34.259971618652344 12.5)">
        <text x="34.259971618652344" y="0" font-family="Virgil, Segoe UI Emoji" font-size="20px"
            fill="#000000" text-anchor="middle" style="white-space: pre;" direction="ltr"
            dominant-baseline="text-before-edge">CONST</text>
    </g>
    <g stroke-linecap="round"
        transform="translate(980.5835805516607 494.84992591512184) rotate(0 21 17.5)">
        <path
            d="M8.75 0 M8.75 0 C15.1 -0.3, 24.26 0.26, 33.25 0 M8.75 0 C17.08 -0.89, 23.46 -0.3, 33.25 0 M33.25 0 C40.64 1.54, 43.58 1.85, 42 8.75 M33.25 0 C40.37 0.58, 43.37 4.73, 42 8.75 M42 8.75 C43.31 17.07, 40.64 21.32, 42 26.25 M42 8.75 C42.8 14.57, 41.45 21.84, 42 26.25 M42 26.25 C41.94 30.15, 37.24 36.61, 33.25 35 M42 26.25 C40.49 32.4, 37.07 35.11, 33.25 35 M33.25 35 C29.94 33.46, 24.97 36.81, 8.75 35 M33.25 35 C24.25 35.69, 14.88 35.06, 8.75 35 M8.75 35 C2.03 35.23, 0.05 31.94, 0 26.25 M8.75 35 C4.74 36.76, 0.78 30.29, 0 26.25 M0 26.25 C-0.44 22.94, 0.74 18.43, 0 8.75 M0 26.25 C-0.06 19.54, 0.56 13.21, 0 8.75 M0 8.75 C1.23 3.58, 3.58 0.21, 8.75 0 M0 8.75 C-1.57 2.38, 1.71 1.6, 8.75 0"
            stroke="#000000" stroke-width="1" fill="none"></path>
    </g>
    <g transform="translate(994.7035832982427 499.84992591512184) rotate(0 6.879997253417969 12.5)">
        <text x="6.879997253417969" y="0" font-family="Virgil, Segoe UI Emoji" font-size="20px"
            fill="#000000" text-anchor="middle" style="white-space: pre;" direction="ltr"
            dominant-baseline="text-before-edge">0</text>
    </g>
    <g transform="translate(857.8257682311231 349.88952107879334) rotate(0 70.75994110107422 12.5)">
        <text x="0" y="0" font-family="Virgil, Segoe UI Emoji" font-size="20px" fill="#000000"
            text-anchor="start" style="white-space: pre;" direction="ltr"
            dominant-baseline="text-before-edge">Function Chunk</text>
    </g>
    <g stroke-linecap="round"
        transform="translate(856.8573351089734 537.8835947418534) rotate(0 57.5 17.5)">
        <path
            d="M8.75 0 M8.75 0 C34.49 -0.18, 61.57 -1.67, 106.25 0 M8.75 0 C35.38 0.87, 61.18 1.25, 106.25 0 M106.25 0 C110.09 -1.27, 114.1 4.01, 115 8.75 M106.25 0 C111.44 1.96, 114.91 3.33, 115 8.75 M115 8.75 C114.39 13.41, 115.83 17.49, 115 26.25 M115 8.75 C115.38 13.16, 115.04 18.17, 115 26.25 M115 26.25 C113.85 31.6, 111.98 35.71, 106.25 35 M115 26.25 C116.8 29.82, 113.56 34.86, 106.25 35 M106.25 35 C70.62 35.6, 32.05 35.35, 8.75 35 M106.25 35 C73.59 33.48, 41.06 34.97, 8.75 35 M8.75 35 C1.44 33.77, -1.99 33.6, 0 26.25 M8.75 35 C4.56 34.3, 1.34 34.3, 0 26.25 M0 26.25 C-1.64 21.25, -0.5 14.8, 0 8.75 M0 26.25 C-0.49 20.27, 0.25 15.39, 0 8.75 M0 8.75 C0.43 3.12, 0.98 0.35, 8.75 0 M0 8.75 C1.94 2.83, 1.84 0.16, 8.75 0"
            stroke="#000000" stroke-width="1" fill="none"></path>
    </g>
    <g transform="translate(880.0973634903211 542.8835947418534) rotate(0 34.259971618652344 12.5)">
        <text x="34.259971618652344" y="0" font-family="Virgil, Segoe UI Emoji" font-size="20px"
            fill="#000000" text-anchor="middle" style="white-space: pre;" direction="ltr"
            dominant-baseline="text-before-edge">CONST</text>
    </g>
    <g stroke-linecap="round"
        transform="translate(981.5168089337525 536.8069554006097) rotate(0 21 17.5)">
        <path
            d="M8.75 0 M8.75 0 C17.9 -1.01, 26.41 -0.36, 33.25 0 M8.75 0 C15.04 0.55, 19.19 -0.69, 33.25 0 M33.25 0 C38.18 1.1, 41.44 4.62, 42 8.75 M33.25 0 C38.99 0.41, 41.15 1.01, 42 8.75 M42 8.75 C42.92 13.47, 41.38 18.67, 42 26.25 M42 8.75 C42.17 14, 41.58 18.9, 42 26.25 M42 26.25 C41.89 32.79, 40.65 33.04, 33.25 35 M42 26.25 C43.48 31.94, 40.93 37.03, 33.25 35 M33.25 35 C28.17 36.44, 23.84 34.99, 8.75 35 M33.25 35 C28.32 35.52, 21.55 34.19, 8.75 35 M8.75 35 C0.92 36.52, 1.43 31.48, 0 26.25 M8.75 35 C4.26 37.21, 0.06 33.76, 0 26.25 M0 26.25 C-0.22 19.02, 0.71 14.63, 0 8.75 M0 26.25 C0.43 21.92, 0.26 16.16, 0 8.75 M0 8.75 C-1.94 3.27, 4.6 -0.07, 8.75 0 M0 8.75 C-1.07 3.08, 2.62 -1.45, 8.75 0"
            stroke="#000000" stroke-width="1" fill="none"></path>
    </g>
    <g transform="translate(999.8068098492798 541.8069554006097) rotate(0 2.7099990844726562 12.5)">
        <text x="2.7099990844726562" y="0" font-family="Virgil, Segoe UI Emoji" font-size="20px"
            fill="#000000" text-anchor="middle" style="white-space: pre;" direction="ltr"
            dominant-baseline="text-before-edge">1</text>
    </g>
    <g stroke-linecap="round"
        transform="translate(844.8854280064892 237.4587586056447) rotate(0 58 17.5)">
        <path
            d="M8.75 0 M8.75 0 C44.72 -0.16, 84.19 0.81, 107.25 0 M8.75 0 C31.42 1.14, 53.21 1.2, 107.25 0 M107.25 0 C114.52 1.88, 115.02 3.03, 116 8.75 M107.25 0 C110.92 1.93, 115.93 3.75, 116 8.75 M116 8.75 C115.79 11.64, 117.29 16.94, 116 26.25 M116 8.75 C115.6 12.82, 115.24 16.85, 116 26.25 M116 26.25 C117.67 33.65, 112.78 36.42, 107.25 35 M116 26.25 C113.81 32.65, 112.82 36.87, 107.25 35 M107.25 35 C88.63 34.92, 65.12 35.24, 8.75 35 M107.25 35 C81.22 35.18, 54.44 35.78, 8.75 35 M8.75 35 C3.77 33.64, -1.46 30.43, 0 26.25 M8.75 35 C4 34.03, 1.4 33.27, 0 26.25 M0 26.25 C-0.86 20.82, -0.21 16.37, 0 8.75 M0 26.25 C0.38 20.54, -0.49 15.17, 0 8.75 M0 8.75 C0.71 2.06, 1.43 0.88, 8.75 0 M0 8.75 C-1.1 1.03, 3.24 -0.96, 8.75 0"
            stroke="#000000" stroke-width="1" fill="none"></path>
    </g>
    <g transform="translate(880.445440823872 242.4587586056447) rotate(0 22.439987182617188 12.5)">
        <text x="22.439987182617188" y="0" font-family="Virgil, Segoe UI Emoji" font-size="20px"
            fill="#000000" text-anchor="middle" style="white-space: pre;" direction="ltr"
            dominant-baseline="text-before-edge">OUT</text>
    </g>
    <g stroke-linecap="round">
        <g
            transform="translate(601.5076403008807 134.75255086304853) rotate(0 118.55889114234901 40.53409316966025)">
            <path
                d="M0.36 0.03 C39.92 13.62, 198.24 67.1, 238.03 80.88 M-0.91 -1 C38.42 12.79, 197.06 68.4, 237.03 82.07"
                stroke="#000000" stroke-width="1" fill="none"></path>
        </g>
        <g
            transform="translate(601.5076403008807 134.75255086304853) rotate(0 118.55889114234901 40.53409316966025)">
            <path
                d="M207.08 82.34 C216.62 83.9, 230.42 80.22, 237.84 83.78 M206.07 82.33 C219.22 83.14, 230.12 82.23, 236.79 81.58"
                stroke="#000000" stroke-width="1" fill="none"></path>
        </g>
        <g
            transform="translate(601.5076403008807 134.75255086304853) rotate(0 118.55889114234901 40.53409316966025)">
            <path
                d="M213.81 62.95 C220.84 71.45, 232.24 74.7, 237.84 83.78 M212.8 62.94 C223.16 71.24, 231.44 77.87, 236.79 81.58"
                stroke="#000000" stroke-width="1" fill="none"></path>
        </g>
    </g>
    <mask></mask>
    <g stroke-linecap="round">
        <g
            transform="translate(601.4388399996308 365.7609355870974) rotate(0 124.25060610936242 76.72922791639152)">
            <path
                d="M1.01 1 C42.4 26.59, 207.1 127.64, 248.42 152.98 M0.08 0.47 C41.35 25.81, 206.32 126.29, 247.76 151.44"
                stroke="#000000" stroke-width="1" fill="none"></path>
        </g>
        <g
            transform="translate(601.4388399996308 365.7609355870974) rotate(0 124.25060610936242 76.72922791639152)">
            <path
                d="M220.01 146.48 C229.21 148.93, 238.41 150.19, 249.57 152.59 M218.35 144.63 C228.6 148.35, 239.92 151.14, 246.93 151.21"
                stroke="#000000" stroke-width="1" fill="none"></path>
        </g>
        <g
            transform="translate(601.4388399996308 365.7609355870974) rotate(0 124.25060610936242 76.72922791639152)">
            <path
                d="M230.67 128.95 C236.5 136.89, 242.42 143.55, 249.57 152.59 M229.01 127.1 C235.16 137.2, 242.55 146.48, 246.93 151.21"
                stroke="#000000" stroke-width="1" fill="none"></path>
        </g>
    </g>
    <mask></mask>
    <g stroke-linecap="round"
        transform="translate(34.11882648705878 255.74422457177647) rotate(0 25.5 25.5)">
        <path
            d="M12.75 0 M12.75 0 C22.72 -0.62, 28.53 1.11, 38.25 0 M12.75 0 C22.46 0.88, 32.58 0.2, 38.25 0 M38.25 0 C45.36 -1.68, 52.63 3.62, 51 12.75 M38.25 0 C45.6 -0.52, 48.92 5.94, 51 12.75 M51 12.75 C49.99 17.14, 49.02 25.76, 51 38.25 M51 12.75 C51.51 19.82, 50 27.05, 51 38.25 M51 38.25 C49.08 46.4, 47.62 52.59, 38.25 51 M51 38.25 C52.76 48.4, 46.26 52.41, 38.25 51 M38.25 51 C29.56 52.28, 18.42 52.06, 12.75 51 M38.25 51 C32.26 51.75, 28.03 51.47, 12.75 51 M12.75 51 C4.11 49.01, -1.73 47.7, 0 38.25 M12.75 51 C3.11 48.87, 0.17 48.44, 0 38.25 M0 38.25 C-1.05 29.79, -1.86 21.44, 0 12.75 M0 38.25 C-0.78 31.91, -0.42 25.26, 0 12.75 M0 12.75 C-0.22 2.41, 2.97 -0.67, 12.75 0 M0 12.75 C-0.51 5.95, 3.67 -1.47, 12.75 0"
            stroke="#000000" stroke-width="1" fill="none"></path>
    </g>
    <g
        transform="translate(53.68653736352363 268.3215192577668) rotate(0 5.932289123535156 12.922705314009676)">
        <text x="5.932289123535156" y="0" font-family="Virgil, Segoe UI Emoji"
            font-size="20.67632850241546px" fill="#000000" text-anchor="middle"
            style="white-space: pre;" direction="ltr" dominant-baseline="text-before-edge">F</text>
    </g>
    <g stroke-linecap="round"
        transform="translate(88.68645933729991 255.74422457177647) rotate(0 80 25.5)">
        <path
            d="M12.75 0 M12.75 0 C43.21 1.47, 78.46 1.61, 147.25 0 M12.75 0 C50.07 -0.96, 85.53 -1.93, 147.25 0 M147.25 0 C157.38 -0.63, 159 3.8, 160 12.75 M147.25 0 C153.67 1.69, 158.25 2.19, 160 12.75 M160 12.75 C158.15 24.5, 159.23 32.77, 160 38.25 M160 12.75 C159.18 21.94, 159.18 29.54, 160 38.25 M160 38.25 C160.87 48.34, 157.28 52.44, 147.25 51 M160 38.25 C159.51 48.16, 157.98 51.85, 147.25 51 M147.25 51 C106.34 52.89, 62.94 50.77, 12.75 51 M147.25 51 C98.37 52.07, 47.63 50.78, 12.75 51 M12.75 51 C2.52 51.95, -0.99 44.9, 0 38.25 M12.75 51 C4.42 52.69, 1.04 48.87, 0 38.25 M0 38.25 C-1.52 30.47, -0.75 21.65, 0 12.75 M0 38.25 C-0.17 30.65, 0.07 21.88, 0 12.75 M0 12.75 C-1.28 3.58, 3.81 1.48, 12.75 0 M0 12.75 C-0.58 2.78, 4.91 -0.5, 12.75 0"
            stroke="#000000" stroke-width="1" fill="none"></path>
    </g>
    <g
        transform="translate(134.4156310902296 268.3215192577668) rotate(0 34.27082824707031 12.922705314009676)">
        <text x="34.27082824707031" y="0" font-family="Virgil, Segoe UI Emoji"
            font-size="20.67632850241546px" fill="#000000" text-anchor="middle"
            style="white-space: pre;" direction="ltr" dominant-baseline="text-before-edge">fn:hello</text>
    </g>
    <g stroke-linecap="round"
        transform="translate(34.01844928487108 315.202785941584) rotate(0 25.5 25.5)">
        <path
            d="M12.75 0 M12.75 0 C20.95 0.96, 25.52 0.03, 38.25 0 M12.75 0 C21.76 -0.87, 32.99 -0.35, 38.25 0 M38.25 0 C45.75 -0.45, 49.19 5.72, 51 12.75 M38.25 0 C45 -2.06, 53.27 3.35, 51 12.75 M51 12.75 C50.11 18.41, 51.43 25.79, 51 38.25 M51 12.75 C49.8 20.93, 51.19 30.25, 51 38.25 M51 38.25 C52.53 48.19, 46.32 52.23, 38.25 51 M51 38.25 C53.23 47.6, 46.92 52.66, 38.25 51 M38.25 51 C27.35 50.05, 21.13 50.28, 12.75 51 M38.25 51 C29.06 50.08, 19.15 51.55, 12.75 51 M12.75 51 C3.26 49.15, 0.15 48.22, 0 38.25 M12.75 51 C5.29 53.12, 0.85 45.82, 0 38.25 M0 38.25 C-0.65 30.73, 0.27 20.65, 0 12.75 M0 38.25 C-0.02 29.13, -0.55 21.53, 0 12.75 M0 12.75 C-0.44 5.73, 3.75 -1.28, 12.75 0 M0 12.75 C0.66 3.75, 2.8 -1.32, 12.75 0"
            stroke="#000000" stroke-width="1" fill="none"></path>
    </g>
    <g
        transform="translate(53.234773137410144 327.7800806275744) rotate(0 6.2836761474609375 12.922705314009647)">
        <text x="6.2836761474609375" y="0" font-family="Virgil, Segoe UI Emoji"
            font-size="20.67632850241546px" fill="#000000" text-anchor="middle"
            style="white-space: pre;" direction="ltr" dominant-baseline="text-before-edge">S</text>
    </g>
    <g stroke-linecap="round"
        transform="translate(88.58608213511266 315.202785941584) rotate(0 80 25.5)">
        <path
            d="M12.75 0 M12.75 0 C58.94 -0.57, 107.83 0.43, 147.25 0 M12.75 0 C55.63 0.82, 96.38 0.9, 147.25 0 M147.25 0 C153.94 1.47, 158.48 2.46, 160 12.75 M147.25 0 C158.02 -0.9, 158.48 2.24, 160 12.75 M160 12.75 C160.57 23.52, 160.47 30.17, 160 38.25 M160 12.75 C160.19 23, 160.52 32.39, 160 38.25 M160 38.25 C159.57 47.98, 157.69 51.74, 147.25 51 M160 38.25 C160.17 48.41, 157.2 51.49, 147.25 51 M147.25 51 C101.33 49.42, 53.75 52.07, 12.75 51 M147.25 51 C102.08 50.13, 58.14 48.73, 12.75 51 M12.75 51 C4.4 52.47, 0.91 48.59, 0 38.25 M12.75 51 C5.1 50.07, 0.4 44.88, 0 38.25 M0 38.25 C0.17 28.16, 0.54 20.2, 0 12.75 M0 38.25 C-0.61 29.95, -0.19 23.05, 0 12.75 M0 12.75 C-0.5 2.97, 4.82 -0.43, 12.75 0 M0 12.75 C-1.45 2.93, 3.01 -0.41, 12.75 0"
            stroke="#000000" stroke-width="1" fill="none"></path>
    </g>
    <g
        transform="translate(148.5568691834525 327.7800806275744) rotate(0 20.029212951660156 12.922705314009647)">
        <text x="20.029212951660156" y="0" font-family="Virgil, Segoe UI Emoji"
            font-size="20.67632850241546px" fill="#000000" text-anchor="middle"
            style="white-space: pre;" direction="ltr" dominant-baseline="text-before-edge">0x0</text>
    </g>
</svg>